<svg width="63" height="35" viewBox="0 0 63 35" fill="none" xmlns="http://www.w3.org/2000/svg">
<path d="M6.82 34.268V30.77C6.23333 30.814 5.68333 30.924 5.17 31.1C4.67133 31.276 4.23133 31.5107 3.85 31.804C3.42467 32.1413 3.11667 32.508 2.926 32.904C2.73533 33.2853 2.64 33.74 2.64 34.268H0V29.934C0 28.9807 0.0953333 28.1007 0.286 27.294C0.491333 26.4873 0.777333 25.732 1.144 25.028C1.51067 24.3093 1.95067 23.62 2.464 22.96C2.97733 22.3 3.54933 21.64 4.18 20.98L0.66 21.926V19.308H9.438V34.268H6.82ZM6.82 22.542C6.18933 22.8793 5.62467 23.2973 5.126 23.796C4.62733 24.2947 4.202 24.8447 3.85 25.446C3.498 26.0473 3.21933 26.6927 3.014 27.382C2.80867 28.0567 2.69133 28.746 2.662 29.45C3.21933 29.0687 3.85 28.768 4.554 28.548C5.27267 28.3133 6.028 28.174 6.82 28.13V22.542Z" fill="currentColor"/>
<path d="M21.0664 25.754C21.0664 26.326 21.037 26.942 20.9784 27.602C20.9344 28.262 20.839 28.922 20.6924 29.582C20.5457 30.2273 20.3477 30.8507 20.0984 31.452C19.849 32.0533 19.5264 32.5887 19.1304 33.058C18.749 33.5127 18.2797 33.8793 17.7224 34.158C17.165 34.4367 16.5124 34.576 15.7644 34.576C15.0164 34.576 14.3637 34.4367 13.8064 34.158C13.2637 33.8793 12.7944 33.5127 12.3984 33.058C12.0024 32.5887 11.6797 32.0533 11.4304 31.452C11.1957 30.8507 11.005 30.2273 10.8584 29.582C10.7117 28.922 10.609 28.262 10.5504 27.602C10.5064 26.942 10.4844 26.326 10.4844 25.754C10.4844 24.5367 10.5577 23.356 10.7044 22.212C10.851 21.0533 11.005 20.0853 11.1664 19.308H13.8504C13.7624 19.6307 13.6744 20.0267 13.5864 20.496C13.4984 20.9653 13.4177 21.486 13.3444 22.058C13.271 22.6153 13.2124 23.2093 13.1684 23.84C13.1244 24.4707 13.1024 25.1087 13.1024 25.754C13.1024 26.0327 13.1097 26.3847 13.1244 26.81C13.139 27.2207 13.1757 27.6607 13.2344 28.13C13.293 28.5847 13.381 29.0393 13.4984 29.494C13.6157 29.9487 13.7697 30.3593 13.9604 30.726C14.1657 31.0927 14.415 31.3933 14.7084 31.628C15.0017 31.848 15.3537 31.958 15.7644 31.958C16.1897 31.958 16.549 31.848 16.8424 31.628C17.1504 31.3933 17.3997 31.0927 17.5904 30.726C17.7957 30.3593 17.9497 29.9487 18.0524 29.494C18.1697 29.0393 18.2577 28.5847 18.3164 28.13C18.375 27.6607 18.4117 27.2207 18.4264 26.81C18.441 26.3847 18.4484 26.0327 18.4484 25.754C18.4484 25.1087 18.4264 24.4707 18.3824 23.84C18.3384 23.2093 18.2797 22.6153 18.2064 22.058C18.133 21.486 18.0524 20.9653 17.9644 20.496C17.8764 20.0267 17.7884 19.6307 17.7004 19.308H20.3844C20.5457 20.0853 20.6997 21.0533 20.8464 22.212C20.993 23.356 21.0664 24.5367 21.0664 25.754Z" fill="currentColor"/>
<path d="M27.4192 21.926V34.268H24.7792V21.926H21.6992V19.308H30.4992V21.926H27.4192Z" fill="currentColor"/>
<path d="M41.5257 26.128C41.5257 26.9493 41.4377 27.8513 41.2617 28.834C41.0857 29.802 40.785 30.7187 40.3597 31.584C39.9344 32.4347 39.3697 33.146 38.6657 33.718C37.9764 34.29 37.1184 34.576 36.0917 34.576C35.065 34.576 34.1997 34.29 33.4957 33.718C32.8064 33.146 32.249 32.4347 31.8237 31.584C31.413 30.7187 31.1197 29.802 30.9437 28.834C30.7677 27.8513 30.6797 26.9493 30.6797 26.128C30.6797 25.3213 30.7824 24.5 30.9877 23.664C31.193 22.8133 31.5157 22.0433 31.9557 21.354C32.3957 20.6647 32.953 20.1 33.6277 19.66C34.317 19.22 35.1384 19 36.0917 19C37.045 19 37.859 19.22 38.5337 19.66C39.223 20.1 39.7877 20.6647 40.2277 21.354C40.6677 22.0433 40.9904 22.8133 41.1957 23.664C41.4157 24.5 41.5257 25.3213 41.5257 26.128ZM38.8857 26.128C38.8857 25.732 38.8417 25.2773 38.7537 24.764C38.6657 24.2507 38.5117 23.7593 38.2917 23.29C38.0717 22.8207 37.7784 22.4247 37.4117 22.102C37.0597 21.7793 36.6197 21.618 36.0917 21.618C35.5637 21.618 35.1164 21.7793 34.7497 22.102C34.3977 22.4247 34.1117 22.8207 33.8917 23.29C33.6717 23.7593 33.5177 24.2507 33.4297 24.764C33.3417 25.2773 33.2977 25.732 33.2977 26.128C33.2977 26.392 33.3124 26.722 33.3417 27.118C33.371 27.4993 33.4224 27.91 33.4957 28.35C33.5837 28.7753 33.6937 29.208 33.8257 29.648C33.9724 30.0733 34.1484 30.462 34.3537 30.814C34.559 31.1513 34.801 31.43 35.0797 31.65C35.373 31.8553 35.7104 31.958 36.0917 31.958C36.473 31.958 36.803 31.8553 37.0817 31.65C37.375 31.43 37.6244 31.1513 37.8297 30.814C38.0497 30.462 38.2257 30.0733 38.3577 29.648C38.4897 29.208 38.5924 28.7753 38.6657 28.35C38.7537 27.91 38.8124 27.4993 38.8417 27.118C38.871 26.722 38.8857 26.392 38.8857 26.128Z" fill="currentColor"/>
<path d="M9.49659 6.248C9.49659 6.96667 9.40126 7.68533 9.21059 8.404C9.01993 9.12267 8.74859 9.81933 8.39659 10.494C8.05926 11.1687 7.64859 11.7993 7.16459 12.386C6.68059 12.958 6.13793 13.4567 5.53659 13.882C4.93526 14.3073 4.28259 14.6447 3.57859 14.894C2.88926 15.1433 2.16326 15.268 1.40059 15.268H0.0585938V0.308H3.77659C4.61259 0.308 5.38259 0.462 6.08659 0.769999C6.79059 1.078 7.39193 1.496 7.89059 2.024C8.40393 2.552 8.79993 3.18267 9.07859 3.916C9.35726 4.63467 9.49659 5.412 9.49659 6.248ZM6.87859 6.248C6.87859 5.77867 6.80526 5.346 6.65859 4.95C6.52659 4.53933 6.32126 4.18733 6.04259 3.894C5.77859 3.586 5.45593 3.35133 5.07459 3.19C4.69326 3.014 4.26059 2.926 3.77659 2.926H2.69859V12.43C3.29993 12.2393 3.85726 11.924 4.37059 11.484C4.88393 11.044 5.32393 10.5453 5.69059 9.988C6.07193 9.416 6.36526 8.80733 6.57059 8.162C6.77593 7.502 6.87859 6.864 6.87859 6.248Z" fill="currentColor"/>
<path d="M16.967 15.268C16.9816 15.092 16.989 14.9013 16.989 14.696C17.0036 14.4907 17.011 14.2633 17.011 14.014C17.011 13.442 16.9816 12.8187 16.923 12.144C16.879 11.4547 16.791 10.7873 16.659 10.142C16.527 9.482 16.3436 8.88067 16.109 8.338C15.8743 7.79533 15.5736 7.37 15.207 7.062C14.8696 7.22333 14.525 7.37733 14.173 7.524C13.8356 7.656 13.4983 7.79533 13.161 7.942V15.268H10.543V0.308H14.723C15.1776 0.308 15.6176 0.374 16.043 0.506C16.4683 0.637999 16.8423 0.828666 17.165 1.078C17.5023 1.32733 17.7663 1.64267 17.957 2.024C18.1623 2.39067 18.265 2.82333 18.265 3.322C18.265 3.79133 18.1843 4.20933 18.023 4.576C17.8763 4.928 17.6636 5.25067 17.385 5.544C17.825 6.05733 18.1843 6.65133 18.463 7.326C18.7563 7.986 18.9836 8.68267 19.145 9.416C19.321 10.1493 19.4456 10.9047 19.519 11.682C19.5923 12.4447 19.629 13.178 19.629 13.882C19.629 14.1313 19.6216 14.3733 19.607 14.608C19.607 14.828 19.5996 15.048 19.585 15.268H16.967ZM15.647 3.322C15.647 3.234 15.6103 3.16067 15.537 3.102C15.4636 3.04333 15.3756 3.00667 15.273 2.992C15.1703 2.96267 15.0676 2.948 14.965 2.948C14.8623 2.93333 14.7816 2.926 14.723 2.926H13.161V5.104C13.4543 4.98667 13.7476 4.862 14.041 4.73C14.3343 4.58333 14.5983 4.43667 14.833 4.29C15.0823 4.12867 15.2803 3.96733 15.427 3.806C15.5736 3.64467 15.647 3.48333 15.647 3.322Z" fill="currentColor"/>
<path d="M27.5036 15.268V11.77C26.9169 11.814 26.3669 11.924 25.8536 12.1C25.3549 12.276 24.9149 12.5107 24.5336 12.804C24.1083 13.1413 23.8003 13.508 23.6096 13.904C23.4189 14.2853 23.3236 14.74 23.3236 15.268H20.6836V10.934C20.6836 9.98067 20.7789 9.10067 20.9696 8.294C21.1749 7.48733 21.4609 6.732 21.8276 6.028C22.1943 5.30933 22.6343 4.62 23.1476 3.96C23.6609 3.3 24.2329 2.64 24.8636 1.98L21.3436 2.926V0.308H30.1216V15.268H27.5036ZM27.5036 3.542C26.8729 3.87933 26.3083 4.29733 25.8096 4.796C25.3109 5.29467 24.8856 5.84467 24.5336 6.446C24.1816 7.04733 23.9029 7.69267 23.6976 8.382C23.4923 9.05667 23.3749 9.746 23.3456 10.45C23.9029 10.0687 24.5336 9.768 25.2376 9.548C25.9563 9.31333 26.7116 9.174 27.5036 9.13V3.542Z" fill="currentColor"/>
<path d="M39.308 15.268C38.164 15.268 37.0933 15.004 36.096 14.476C35.1133 13.9333 34.2553 13.2367 33.522 12.386C32.7886 11.5207 32.2093 10.5527 31.784 9.482C31.3733 8.41133 31.168 7.33333 31.168 6.248C31.168 5.412 31.3073 4.63467 31.586 3.916C31.8646 3.18267 32.2533 2.552 32.752 2.024C33.2653 1.496 33.874 1.078 34.578 0.769999C35.282 0.462 36.0593 0.308 36.91 0.308H40.298V2.926H36.91C36.426 2.926 35.9933 3.014 35.612 3.19C35.2306 3.35133 34.9006 3.586 34.622 3.894C34.358 4.18733 34.1526 4.53933 34.006 4.95C33.874 5.346 33.808 5.77867 33.808 6.248C33.808 6.864 33.9106 7.502 34.116 8.162C34.3213 8.80733 34.6073 9.416 34.974 9.988C35.3553 10.5453 35.8026 11.044 36.316 11.484C36.8293 11.924 37.3866 12.2393 37.988 12.43V4.884H40.606V15.268H39.308Z" fill="currentColor"/>
<path d="M52.4983 7.128C52.4983 7.94933 52.4103 8.85133 52.2343 9.834C52.0583 10.802 51.7577 11.7187 51.3323 12.584C50.907 13.4347 50.3423 14.146 49.6383 14.718C48.949 15.29 48.091 15.576 47.0643 15.576C46.0377 15.576 45.1723 15.29 44.4683 14.718C43.779 14.146 43.2217 13.4347 42.7963 12.584C42.3857 11.7187 42.0923 10.802 41.9163 9.834C41.7403 8.85133 41.6523 7.94933 41.6523 7.128C41.6523 6.32133 41.755 5.5 41.9603 4.664C42.1657 3.81333 42.4883 3.04333 42.9283 2.354C43.3683 1.66467 43.9257 1.1 44.6003 0.659999C45.2897 0.22 46.111 0 47.0643 0C48.0177 0 48.8317 0.22 49.5063 0.659999C50.1957 1.1 50.7603 1.66467 51.2003 2.354C51.6403 3.04333 51.963 3.81333 52.1683 4.664C52.3883 5.5 52.4983 6.32133 52.4983 7.128ZM49.8583 7.128C49.8583 6.732 49.8143 6.27733 49.7263 5.764C49.6383 5.25067 49.4843 4.75933 49.2643 4.29C49.0443 3.82067 48.751 3.42467 48.3843 3.102C48.0323 2.77933 47.5923 2.618 47.0643 2.618C46.5363 2.618 46.089 2.77933 45.7223 3.102C45.3703 3.42467 45.0843 3.82067 44.8643 4.29C44.6443 4.75933 44.4903 5.25067 44.4023 5.764C44.3143 6.27733 44.2703 6.732 44.2703 7.128C44.2703 7.392 44.285 7.722 44.3143 8.118C44.3437 8.49933 44.395 8.91 44.4683 9.35C44.5563 9.77533 44.6663 10.208 44.7983 10.648C44.945 11.0733 45.121 11.462 45.3263 11.814C45.5317 12.1513 45.7737 12.43 46.0523 12.65C46.3457 12.8553 46.683 12.958 47.0643 12.958C47.4457 12.958 47.7757 12.8553 48.0543 12.65C48.3477 12.43 48.597 12.1513 48.8023 11.814C49.0223 11.462 49.1983 11.0733 49.3303 10.648C49.4623 10.208 49.565 9.77533 49.6383 9.35C49.7263 8.91 49.785 8.49933 49.8143 8.118C49.8437 7.722 49.8583 7.392 49.8583 7.128Z" fill="currentColor"/>
<path d="M62.4647 6.182C62.4647 6.886 62.4134 7.634 62.3107 8.426C62.2227 9.20333 62.098 9.988 61.9367 10.78C61.7754 11.572 61.5847 12.3567 61.3647 13.134C61.1594 13.8967 60.9394 14.608 60.7047 15.268H57.9327C58.1967 14.6667 58.446 13.9773 58.6807 13.2C58.9154 12.4227 59.1134 11.6233 59.2747 10.802C59.4507 9.98067 59.59 9.174 59.6927 8.382C59.7954 7.57533 59.8467 6.842 59.8467 6.182C59.8467 5.90333 59.832 5.58067 59.8027 5.214C59.788 4.83267 59.7294 4.47333 59.6267 4.136C59.524 3.79867 59.3627 3.51267 59.1427 3.278C58.9374 3.04333 58.6367 2.926 58.2407 2.926C57.9767 2.926 57.742 2.98467 57.5367 3.102C57.3314 3.21933 57.1407 3.37333 56.9647 3.564C56.8034 3.74 56.6567 3.938 56.5247 4.158C56.3927 4.378 56.2754 4.59067 56.1727 4.796V15.268H53.5547V0.308H56.1727V0.857999C56.8327 0.491333 57.522 0.308 58.2407 0.308C59.062 0.308 59.744 0.484 60.2867 0.836C60.8294 1.188 61.262 1.65 61.5847 2.222C61.9074 2.77933 62.1347 3.41 62.2667 4.114C62.3987 4.80333 62.4647 5.49267 62.4647 6.182Z" fill="currentColor"/>
</svg>
