<svg width="416" height="199" viewBox="0 0 416 199" fill="none" xmlns="http://www.w3.org/2000/svg">
<rect x="146" y="2" width="268" height="135" rx="9" fill="#FCF9E9" stroke="#FCF9E9" stroke-width="4"/>
<rect x="150" y="6" width="260" height="127" rx="5" fill="#FCF9E9" stroke="#2F3032" stroke-width="4"/>
<path d="M83 136C78.0294 136 74 131.971 74 127C74 131.971 69.9706 136 65 136H83ZM31.126 156.293C30.926 156.607 30.7328 156.926 30.5459 157.249C30.7328 156.926 30.926 156.607 31.126 156.293ZM75.873 156.293C76.073 156.607 76.2662 156.926 76.4531 157.249C76.2662 156.926 76.073 156.607 75.873 156.293ZM286.126 156.293C285.926 156.607 285.733 156.926 285.546 157.249C285.733 156.926 285.926 156.607 286.126 156.293ZM330.873 156.293C331.073 156.607 331.266 156.926 331.453 157.249C331.266 156.926 331.073 156.607 330.873 156.293ZM341.126 156.293C340.926 156.607 340.733 156.926 340.546 157.249C340.733 156.926 340.926 156.607 341.126 156.293ZM385.873 156.293C386.073 156.607 386.266 156.926 386.453 157.249C386.266 156.926 386.073 156.607 385.873 156.293ZM37.8135 149.14C37.0897 149.672 36.3936 150.24 35.7285 150.842C36.3936 150.24 37.0897 149.672 37.8135 149.14ZM69.2988 149.224C69.982 149.732 70.6402 150.272 71.2705 150.842C70.6402 150.272 69.982 149.732 69.2988 149.224ZM292.813 149.14C292.09 149.672 291.394 150.24 290.729 150.842C291.394 150.24 292.09 149.672 292.813 149.14ZM324.299 149.224C324.982 149.732 325.64 150.272 326.271 150.842C325.64 150.272 324.982 149.732 324.299 149.224ZM347.813 149.14C347.09 149.672 346.394 150.24 345.729 150.842C346.394 150.24 347.09 149.672 347.813 149.14ZM379.299 149.224C379.982 149.732 380.64 150.272 381.271 150.842C380.64 150.272 379.982 149.732 379.299 149.224ZM45.5566 145.211C45.1805 145.329 44.8082 145.456 44.4395 145.59C44.8082 145.456 45.1805 145.329 45.5566 145.211ZM61.4424 145.211C61.8185 145.329 62.1909 145.456 62.5596 145.59C62.1908 145.456 61.8185 145.329 61.4424 145.211ZM300.557 145.211C300.181 145.329 299.808 145.456 299.439 145.59C299.808 145.456 300.18 145.329 300.557 145.211ZM316.442 145.211C316.819 145.329 317.191 145.456 317.56 145.59C317.191 145.456 316.819 145.329 316.442 145.211ZM355.557 145.211C355.181 145.329 354.808 145.456 354.439 145.59C354.808 145.456 355.18 145.329 355.557 145.211ZM371.442 145.211C371.819 145.329 372.191 145.456 372.56 145.59C372.191 145.456 371.819 145.329 371.442 145.211ZM405 136C409.971 136 414 140.029 414 145V153C414 157.971 409.971 162 405 162H388.645L388.144 160.737C388.08 160.576 388.014 160.416 387.947 160.257C389.269 163.408 390 166.869 390 170.5C390 185.136 378.136 197 363.5 197C348.864 197 337 185.136 337 170.5C337 166.869 337.731 163.408 339.053 160.257C338.986 160.416 338.92 160.576 338.856 160.737L338.355 162H333.645L333.144 160.737C333.08 160.576 333.014 160.416 332.947 160.257C334.269 163.408 335 166.869 335 170.5C335 185.136 323.136 197 308.5 197C293.864 197 282 185.136 282 170.5C282 166.869 282.731 163.408 284.053 160.257C283.986 160.416 283.92 160.576 283.856 160.737L283.355 162H78.6445L78.1436 160.737C78.0797 160.576 78.0141 160.416 77.9473 160.257C79.2692 163.408 80 166.869 80 170.5C80 185.136 68.1355 197 53.5 197C38.8645 197 27 185.136 27 170.5C27 166.869 27.7308 163.408 29.0527 160.257C28.9859 160.416 28.9203 160.576 28.8564 160.737L28.3555 162H11C6.02944 162 2 157.971 2 153V145C2 140.029 6.02944 136 11 136L10.5371 135.988C5.78166 135.747 2 131.815 2 127V83C2 78.0294 6.02944 74 11 74H65C69.9706 74 74 78.0294 74 83V25C74 20.0294 78.0294 16 83 16H137C141.971 16 146 20.0294 146 25V127C146 131.971 141.971 136 137 136H405Z" fill="#FCF9E9" stroke="#FCF9E9" stroke-width="4"/>
<path d="M53.5 148C65.9264 148 76 158.074 76 170.5C76 182.926 65.9264 193 53.5 193C41.0736 193 31 182.926 31 170.5C31 158.074 41.0736 148 53.5 148ZM308.5 148C320.926 148 331 158.074 331 170.5C331 182.926 320.926 193 308.5 193C296.074 193 286 182.926 286 170.5C286 158.074 296.074 148 308.5 148ZM363.5 148C375.926 148 386 158.074 386 170.5C386 182.926 375.926 193 363.5 193C351.074 193 341 182.926 341 170.5C341 158.074 351.074 148 363.5 148ZM11 140H405C407.761 140 410 142.239 410 145V153C410 155.761 407.761 158 405 158H391.326C386.554 147.392 375.893 140 363.5 140C351.383 140 340.921 147.066 336 157.296C331.079 147.066 320.617 140 308.5 140C296.107 140 285.446 147.392 280.674 158H81.3262C76.5537 147.392 65.8933 140 53.5 140C41.1067 140 30.4463 147.392 25.6738 158H11C8.23858 158 6 155.761 6 153V145C6 142.239 8.23858 140 11 140ZM11 78H65C67.7614 78 70 80.2386 70 83V127C70 129.761 67.7614 132 65 132H11C8.23858 132 6 129.761 6 127V83C6 80.2386 8.23858 78 11 78ZM83 20H137C139.761 20 142 22.2386 142 25V127C142 129.761 139.761 132 137 132H83C80.2386 132 78 129.761 78 127V25C78 22.2386 80.2386 20 83 20Z" fill="#FCF9E9" stroke="#2F3032" stroke-width="4"/>
</svg>
