<svg width="1800" height="540" viewBox="0 0 1800 540" fill="none" xmlns="http://www.w3.org/2000/svg">
<rect y="40" width="1800" height="500" fill="#2F3032"/>
<rect x="2" y="2" width="146" height="36" fill="#FCF9E9" stroke="#2F3032" stroke-width="4"/>
<rect x="152" y="2" width="146" height="36" fill="#FCF9E9" stroke="#2F3032" stroke-width="4"/>
<rect x="302" y="2" width="146" height="36" fill="#FCF9E9" stroke="#2F3032" stroke-width="4"/>
<rect x="452" y="2" width="146" height="36" fill="#FCF9E9" stroke="#2F3032" stroke-width="4"/>
<rect x="602" y="2" width="146" height="36" fill="#FCF9E9" stroke="#2F3032" stroke-width="4"/>
<rect x="752" y="2" width="146" height="36" fill="#FCF9E9" stroke="#2F3032" stroke-width="4"/>
<rect x="902" y="2" width="146" height="36" fill="#FCF9E9" stroke="#2F3032" stroke-width="4"/>
<rect x="1052" y="2" width="146" height="36" fill="#FCF9E9" stroke="#2F3032" stroke-width="4"/>
<rect x="1202" y="2" width="146" height="36" fill="#FCF9E9" stroke="#2F3032" stroke-width="4"/>
<rect x="1352" y="2" width="146" height="36" fill="#FCF9E9" stroke="#2F3032" stroke-width="4"/>
<rect x="1502" y="2" width="146" height="36" fill="#FCF9E9" stroke="#2F3032" stroke-width="4"/>
<rect x="1652" y="2" width="146" height="36" fill="#FCF9E9" stroke="#2F3032" stroke-width="4"/>
<rect y="284" width="205" height="12" fill="#FCF9E9"/>
<rect x="450" y="284" width="205" height="12" fill="#FCF9E9"/>
<rect x="1350" y="284" width="205" height="12" fill="#FCF9E9"/>
<rect x="900" y="284" width="205" height="12" fill="#FCF9E9"/>
</svg>
