<svg width="76" height="37" viewBox="0 0 76 37" fill="none" xmlns="http://www.w3.org/2000/svg">
<path d="M1.16 37V8.556L0.12 3.356L1.16 0.184H16.656C19.152 0.184 21.544 0.426666 23.832 0.912C26.1547 1.36266 28.2173 2.22933 30.02 3.512C31.8573 4.79466 33.296 6.632 34.336 9.024C35.4107 11.416 35.948 14.5187 35.948 18.332C35.948 22.1453 35.4107 25.2827 34.336 27.744C33.2613 30.1707 31.8053 32.06 29.968 33.412C28.1307 34.764 26.0507 35.7 23.728 36.22C21.44 36.74 19.0827 37 16.656 37H1.16ZM10.624 28.68H16.656C19.7067 28.68 22.0467 27.8827 23.676 26.288C25.3053 24.6587 26.12 22.0067 26.12 18.332C26.12 14.6573 25.288 12.1093 23.624 10.688C21.9947 9.232 19.672 8.504 16.656 8.504H10.624V28.68ZM36.977 37L39.473 28.212V21.608L43.321 20.048L50.081 0.235999H63.549L71.921 23.532L75.925 30.916V37H66.721L64.121 28.68H48.989L46.753 37H36.977ZM52.421 20.672H61.261L57.309 8.764H56.217L52.421 20.672Z" fill="white"/>
</svg>
