<svg width="366" height="267" viewBox="0 0 366 267" fill="none" xmlns="http://www.w3.org/2000/svg">
<path d="M98.4883 43.1216C105.143 44.6973 108.758 49.8196 108.043 56.6659C107.358 63.1174 104.069 68.3149 99.9633 73.0203C95.2468 78.4162 89.5278 82.5242 82.7409 84.966C79.3002 86.195 75.7775 86.9512 72.0583 86.5722C71.1187 86.4913 70.1464 86.2212 69.2914 85.7847C66.8373 84.5534 65.9712 82.3651 66.8861 79.7709C67.0488 79.3043 67.298 78.774 67.5636 78.3383C69.9327 74.8591 73.2487 72.6286 77.1133 71.0339C77.609 70.8019 78.1129 70.6172 78.464 71.2384C78.6878 71.6868 78.4695 72.1143 78.1321 72.4163C77.5127 73.0594 76.8297 73.6161 76.1467 74.1728C74.184 75.7792 72.174 77.3939 70.6407 79.5105C69.0846 81.7772 69.5504 83.0606 72.2764 83.6116C75.911 84.3462 79.4255 83.5428 82.7325 82.3856C91.142 79.4679 98.0069 74.3821 102.828 66.776C104.93 63.4405 106.256 59.8495 106.397 55.8792C106.555 50.883 103.227 46.2955 96.7285 45.6184C95.4333 45.453 95.3997 46.3844 95.0496 47.1757C91.4139 56.2816 87.6837 65.4038 84.0398 74.4623C83.426 75.9813 82.6375 77.3357 81.5798 78.5419C81.3288 78.7802 80.9832 79.0349 80.6666 78.8948C80.3501 78.7548 80.2373 78.3846 80.1718 78.0063C80.0944 76.9967 80.4199 76.0634 80.7537 75.1775C84.6158 65.6914 87.9476 55.9562 92.9094 46.913C93.0886 46.541 93.5597 46.1671 93.2886 45.7269C92.962 45.2476 92.3081 45.4096 91.8269 45.4442C86.6698 46.0449 81.802 47.4724 77.1925 49.8294C75.7528 50.5171 74.3212 51.2522 72.8732 51.8926C72.4248 52.1164 71.7791 52.3257 71.4443 51.7991C70.9904 51.1469 71.4288 50.5839 71.8999 50.21C72.6138 49.5505 73.3833 48.9302 74.2164 48.3962C78.421 45.6708 82.995 43.9532 87.3708 43.3416C91.4692 42.5345 94.9792 42.2678 98.4883 43.1216ZM133.377 57.93C133.741 58.0618 133.687 58.3147 133.531 58.5366C133.344 58.8613 133.212 59.2252 133.008 59.4553C130.164 62.7245 126.811 65.3024 122.531 66.1896C121.594 66.4007 121.217 66.7582 120.803 67.4631C119.727 69.4033 118.492 71.2734 116.796 72.7361C116.082 73.3956 115.368 74.0551 114.527 74.5417C113.285 75.244 111.907 75.7262 110.536 74.8431C109.221 73.9992 109.267 72.5784 109.338 71.2996C109.363 70.3209 109.633 69.3486 109.967 68.4626C111.463 64.1603 113.497 60.1545 116.228 56.5152C117.387 55.0479 118.728 53.7927 120.436 52.9612C121.513 52.4336 122.657 52.2843 123.734 52.8772C124.264 53.1264 124.621 53.5029 124.53 54.1033C124.472 54.8928 123.872 54.8018 123.066 54.6491C121.915 54.7511 120.878 55.5152 119.985 56.5467C116.24 60.8001 113.785 65.7555 112.241 71.1866C112.047 71.756 111.775 72.4363 112.386 72.8665C112.988 73.2494 113.665 72.9374 114.144 72.6108C116.423 71.1444 118.123 69.1451 119.418 66.7774C119.636 66.3499 119.752 65.8915 119.489 65.4986C117.626 62.8983 119.27 60.8598 120.559 58.7368C120.824 58.3011 121.193 57.8964 121.561 57.4916C122.055 56.9676 122.596 56.4355 123.396 56.8329C124.251 57.2694 124.24 58.0507 123.992 58.873C123.56 60.312 123.174 61.7427 122.694 63.1899C122.57 63.601 122.274 64.1395 122.52 64.4378C122.886 64.8616 123.524 64.6051 123.98 64.4286C126.681 63.4251 129.063 61.9896 131.038 59.8939C131.649 59.2035 132.285 58.655 132.904 58.0119C133.038 57.94 133.266 57.8517 133.377 57.93ZM154.02 54.2094C154.527 54.6086 154.111 55.0216 153.877 55.3545C149.884 60.4302 145.828 65.4194 140.366 69.0444C139.227 69.7776 137.929 70.4408 136.714 70.4563C131.842 71.2999 128.896 68.3513 130.209 63.8371C131.737 58.3114 135.118 53.9262 139.983 50.7942C141.295 49.9337 142.825 49.7662 144.285 49.757C146.084 49.7377 147.522 51.2911 147.431 53.012C147.243 55.8699 145.901 58.2457 143.854 60.2078C143.525 60.5571 142.973 60.75 142.47 60.9346C141.729 61.1603 141.065 60.983 140.642 60.2281C140.283 59.5596 140.349 58.8174 140.89 58.2852C141.479 57.7449 142.195 57.3774 142.847 56.9235C143.9 56.254 144.89 55.498 145.419 54.3347C145.699 53.7016 146.294 52.9166 145.531 52.1718C144.825 51.466 144.058 51.2578 143.089 51.5716C142.168 51.8773 141.327 52.364 140.604 52.9762C137.167 55.9098 134.608 59.4218 132.899 63.615C132.627 64.2953 132.497 64.9511 132.478 65.6851C132.443 67.7371 133.651 69.0868 135.718 68.9238C136.925 68.8609 138.107 68.6562 139.271 68.0649C141.953 66.6749 144.254 64.7665 146.243 62.4733C148.421 59.8554 150.978 57.464 152.973 54.6342C153.215 54.3486 153.512 53.8101 154.02 54.2094ZM187.467 48.515C187.983 48.9616 187.553 49.5719 187.279 49.9603C186.192 51.5612 184.828 52.9666 183.464 54.372C180.594 57.2073 177.629 60.059 174.393 62.4705C173.615 63.0435 172.854 63.7112 171.797 63.7968C170.536 64.1125 169.799 63.5095 169.444 62.3044C169.103 60.9019 169.403 59.5348 169.899 58.1823C170.76 55.841 171.78 53.5698 172.91 51.3767C173.495 50.2525 174.04 49.1837 174.625 48.0595C174.953 47.4182 174.953 46.2976 173.9 46.9671C173.507 47.23 173.305 47.7521 173.024 48.0932C171.13 50.662 168.904 52.9961 166.963 55.573C165.038 58.2445 163.178 61.0024 161.42 63.7913C160.85 64.7181 160.449 66.3463 159.041 65.8107C157.381 65.2214 158.239 63.7087 158.532 62.5863C158.948 61.0528 159.562 59.5338 160.287 58.093C160.645 57.3489 161.012 56.6522 161.378 55.9555C161.706 55.3142 162.356 54.5683 162.533 53.9043C162.717 52.9957 161.814 53.6879 161.61 53.918C158.018 57.3655 155.163 61.416 152.261 65.4747C151.791 66.1405 151.361 66.7508 150.892 67.4167C150.423 68.0825 149.849 68.4255 149.057 68.0753C148.313 67.717 148.238 66.9994 148.351 66.249C148.403 65.7042 148.511 65.1985 148.665 64.6846C149.873 60.968 151.452 57.4306 153.293 53.9942C153.651 53.2501 154.078 52.0559 155.147 52.6015C156.096 53.0217 155.795 54.0968 155.461 54.9827C154.662 57.1184 153.863 59.2541 153.016 61.398C152.963 61.6508 152.72 61.9365 153.084 62.0683C153.4 62.2084 153.548 61.9391 153.713 61.7645C155.137 59.8616 156.553 57.9114 157.977 56.0085C159.237 54.2802 160.663 52.6693 162.391 51.3958C162.996 50.95 163.687 50.4406 164.528 51.0745C165.257 51.6302 165.302 52.4506 165.046 53.2256C164.644 54.5618 164.203 55.9534 163.596 57.2277C163.487 57.4415 163.418 57.8917 163.727 57.9845C164.035 58.0772 164.142 57.5715 164.307 57.3969C165.606 55.6131 166.849 53.7903 168.148 52.0065C169.798 49.7234 171.607 47.5103 173.599 45.5091C173.976 45.1517 174.399 44.786 174.776 44.4285C175.537 43.7608 176.362 43.1796 177.361 43.8835C178.304 44.5483 177.789 45.5143 177.589 46.3283C176.886 48.7396 175.709 50.9408 174.681 53.1648C173.505 55.658 172.116 58.042 171.462 60.7371C171.338 61.1482 171.034 61.6394 171.383 61.9686C171.835 62.3288 172.442 62.175 172.874 61.8566C174.091 61.0125 175.301 60.121 176.447 59.1431C180.01 56.0904 183.335 52.7866 186.256 49.1145C186.585 48.7652 186.841 47.9903 187.467 48.515ZM208.326 44.9031C208.715 45.1768 208.655 45.6744 208.436 46.1019C207.984 46.8623 207.642 47.7009 207.078 48.3831C204.752 51.2702 202.49 54.2438 199.879 56.888C198.351 58.4681 196.575 59.7498 194.685 60.3693C192.707 60.7606 191.788 60.2377 191.413 58.354C191.145 57.0852 190.853 57.087 190.022 57.913C189.151 58.7944 188.17 59.5976 187.236 60.3927C186.427 61.0685 185.5 61.6189 184.42 61.8545C182.931 62.2585 181.885 61.5628 181.434 60.0821C181.087 58.9242 181.23 57.7791 181.626 56.6876C184.182 50.3505 188.444 45.4231 194.181 41.7017C194.393 41.5188 194.685 41.517 194.905 41.3814C196.904 40.5481 198.516 40.8536 199.298 42.277C200.191 43.7786 199.741 46.2435 198.431 47.3961C198.015 47.809 197.575 48.0801 196.989 47.7918C196.459 47.5426 196.227 47.047 196.231 46.5103C196.226 45.6344 196.418 44.7731 196.459 43.889C196.501 43.0049 195.963 42.7084 195.263 43.1705C194.21 43.84 193.157 44.5095 192.278 45.3437C189.031 48.5365 186.569 52.3241 184.804 56.4781C184.532 57.1585 184.355 57.8225 184.233 58.5256C184.095 59.1341 184.57 59.3442 185.027 59.1677C185.759 58.8947 186.466 58.4799 187.127 58.0733C189.932 56.2722 192.159 53.9381 194.194 51.3448C194.515 50.9482 194.828 50.5043 195.141 50.0604C195.423 49.7193 195.688 49.2836 196.171 49.541C196.805 49.8211 196.714 50.4214 196.512 50.9435C196.271 51.5211 195.919 52.0204 195.678 52.598C195 54.0306 194.323 55.4632 193.701 56.9349C193.443 57.4179 193.344 57.9709 193.757 58.3866C194.234 58.8886 194.697 58.4674 195.201 58.2828C197.665 57.3203 199.381 55.4155 201.033 53.4244C203.116 50.8229 205.532 48.456 207.154 45.4471C207.372 45.0196 207.652 44.3865 208.326 44.9031ZM212.008 42.7067C210.319 43.9247 209.754 45.7275 209.356 47.6476C210.828 48.2696 212.243 47.44 213.372 47.4881C217.495 46.8229 220.958 45.4438 223.917 42.8367C224.388 42.4629 224.944 41.7334 225.453 42.4246C225.843 42.9903 225.105 43.5079 224.634 43.8818C221.926 46.2505 218.779 47.7697 215.328 48.6595C214.627 48.8296 213.965 48.9443 213.255 49.0671C212.696 49.2127 212.421 49.3091 212.607 50.105C213.569 53.6895 210.749 58.2211 207.1 59.0964C205.461 59.4776 204.099 58.6418 203.749 56.9001C203.601 56.0487 203.454 55.1974 203.74 54.3197C203.996 53.5447 204.101 52.747 204.412 52.0112C208.188 42.5888 212.216 33.22 217.361 24.3888C218.306 22.8124 219.409 21.3061 220.742 20.0035C222.037 18.7564 223.888 18.1924 224.823 18.8099C226.146 19.7011 226.273 20.9945 226.101 22.5344C225.728 26.0089 224.248 28.9933 222.395 31.7985C219.721 35.7689 216.365 39.1755 212.652 42.2055C212.44 42.3883 212.228 42.5712 212.008 42.7067ZM213.08 38.7701C212.971 38.9838 212.886 39.3395 212.958 39.4732C213.252 39.7633 213.423 39.344 213.548 39.2248C217.487 35.5226 221.075 31.4912 223.332 26.5212C223.994 24.994 224.599 23.4277 224.343 21.6696C224.194 20.5263 223.608 20.238 222.816 21.0084C221.946 21.8899 221.187 22.8495 220.483 23.8482C217.395 28.5236 215.321 33.7055 213.08 38.7701ZM209.883 49.846C209.219 49.6687 208.413 49.5159 208.016 50.3155C207.12 52.1756 206.43 54.0975 206.095 56.104C206.004 56.7043 206.37 57.1282 207.04 57.0608C208.792 57.0497 211.774 53.1721 211.445 50.9883C211.355 50.468 210.65 50.0542 209.883 49.846ZM256.347 36.5391C257.013 37.0083 256.118 37.7479 255.766 38.2473C252.648 43.0254 248.886 47.1842 243.886 50.0961C243.579 50.2953 243.256 50.3999 242.942 50.5518C241.282 51.3751 239.581 51.9619 237.956 50.7332C236.33 49.5045 236.761 47.7736 237.153 46.0982C237.875 42.9529 239.499 40.2359 240.957 37.4016C241.097 37.0851 241.284 36.7604 241.424 36.4438C241.573 36.1746 241.949 35.8171 241.663 35.5743C241.322 35.2924 241.112 35.7672 240.909 35.9973C238.678 38.868 236.328 41.6133 233.692 44.1156C232.398 45.3628 231.095 46.5626 229.458 47.2358C227.554 48.0527 226.242 47.7927 225.359 46.6303C224.42 45.4289 224.299 42.4783 225.176 41.3522C225.614 40.7891 226.033 40.9601 226.415 41.4785C226.806 42.0442 226.525 42.6773 226.655 43.1421C226.939 45.626 227.699 46.0789 229.744 44.9455C231.694 43.8284 233.278 42.2875 234.799 40.6602C236.805 38.4616 238.803 36.2158 240.801 33.9699C241.169 33.5651 241.49 33.1685 241.914 32.8029C242.519 32.3571 243.075 31.6276 243.985 32.1032C245.054 32.6489 244.642 33.6458 244.387 34.4208C243.754 36.6738 242.646 38.7167 241.633 40.7433C240.659 42.7144 239.638 44.6936 239.083 46.8357C238.413 49.4362 239.056 50.0555 241.736 49.4941C243.107 49.2566 244.136 48.4452 245.173 47.6811C248.966 44.8321 252.125 41.411 254.926 37.6134C255.278 37.114 255.673 36.0225 256.347 36.5391ZM278.528 32.8444C279.392 33.3282 278.546 34.3515 278.14 35.1037C276.441 38.5156 274.299 41.6146 271.324 44.1271C270.225 45.0967 268.96 45.9491 267.438 46.1639C265.199 46.4542 264.239 45.6948 264.122 43.3281C264.112 42.9889 264.188 42.5859 263.785 42.5096C263.627 42.4395 263.392 42.7725 263.18 42.9553C262.014 44.3752 260.966 45.9206 259.458 47.0586C257.808 48.2211 256.119 49.4392 254.154 48.2205C252.198 47.0492 252.461 44.909 252.803 42.9498C253.301 40.4766 254.328 38.2527 255.997 36.3561C256.326 36.0068 256.709 35.4047 257.295 35.693C257.936 36.0204 257.917 36.7544 257.676 37.332C257.242 38.4789 256.712 39.6423 256.278 40.7893C255.742 42.1973 255.301 43.589 255.279 45.1516C255.223 46.2331 255.714 46.5377 256.707 46.3657C257.717 46.2883 258.495 45.7153 259.264 45.0949C260.474 44.2034 261.564 43.1864 262.527 41.9967C263.005 41.3781 263.924 40.7805 263.912 40.1493C263.876 39.3761 262.646 39.5891 262.044 39.2062C260.745 38.4568 259.977 36.8361 260.353 35.066C261.058 31.8262 262.905 29.2656 265.544 27.3471C266.494 26.6467 267.661 26.3474 268.762 27.0822C268.929 27.1995 269.095 27.3168 269.222 27.4897C269.596 27.9608 269.915 28.3928 270.029 29.0549C270.257 30.0873 270.011 31.2015 269.655 32.2375C269.228 33.4318 268.643 34.556 268.153 35.6639C268.005 35.9331 267.921 36.2888 268.307 36.2706C268.544 36.2296 268.772 36.1414 268.992 36.0058C269.401 35.8375 269.786 35.5273 270.203 35.4063C270.613 35.238 271.078 35.1088 271.357 35.5963C271.628 36.0365 271.362 36.4722 271.017 36.7269C269.846 37.5629 268.842 38.5162 267.854 39.5641C267.079 40.4291 266.414 41.3724 266.066 42.4557C265.493 44.2112 266.033 44.7996 267.783 44.4966C269.107 44.2673 270.049 43.5196 271.031 42.7164C273.716 40.4977 275.552 37.5979 277.158 34.4944C277.533 33.845 277.879 32.4697 278.528 32.8444ZM263.013 36.3592C263.205 36.9104 263.76 37.3015 264.313 37.4006C264.866 37.4996 265.473 37.3459 265.961 37.0666C266.362 36.851 266.755 36.5881 267.036 36.247C267.271 35.9141 267.347 35.5112 267.527 35.1391C267.72 34.5697 267.922 34.0476 268.171 33.5174C268.567 32.4259 268.907 31.2953 269.05 30.1501C269.079 29.7554 269.061 29.3688 268.948 28.9986C268.835 28.6284 268.58 28.2828 268.216 28.151C267.9 28.0109 267.466 28.0373 267.151 28.1893C266.789 28.3494 266.491 28.5959 266.24 28.8342C264.625 30.4779 263.581 32.6073 263.042 34.8439C262.935 35.3496 262.836 35.9026 263.013 36.3592ZM296.261 29.579C296.846 29.8673 296.486 30.3194 296.307 30.6914C295.288 32.9626 293.674 34.8983 292.044 36.7394C288.417 40.8263 284.16 44.0965 279.051 46.1015C276.493 47.0804 274.592 45.9482 274.228 43.2832C273.937 42.1645 274.237 41.0894 274.633 39.9979C276.244 35.2371 278.561 30.8902 281.851 27.1053C282.814 25.9155 284.024 25.024 285.369 24.3527C286.305 23.8496 287.315 23.7722 288.093 24.6117C288.761 25.3729 288.783 26.3434 288.371 27.3403C288.099 28.0207 287.605 28.5446 287.103 29.0213C285.739 30.4267 284.081 31.5419 282.23 32.106C280.797 32.549 280.021 33.4141 279.397 34.5938C278.367 36.5258 277.393 38.4969 276.736 40.608C276.326 41.8969 275.807 43.3995 276.949 44.3708C277.917 45.1775 279.239 44.6562 280.475 44.1986C285.222 42.3537 288.903 39.1345 291.9 35.0594C293.081 33.4422 294.199 31.7385 295.419 30.0657C295.576 29.8438 295.841 29.4081 296.261 29.579ZM283.11 29.0307C283.04 29.189 282.805 29.5219 282.886 29.7029C283.029 29.9703 283.611 29.6746 283.84 29.5864C284.5 29.1798 285.238 28.6622 285.771 28.0827C286.109 27.7807 286.438 27.4314 286.609 27.0121C286.687 26.9012 286.788 26.6401 286.811 26.49C286.803 26.4427 286.803 26.4427 286.795 26.3954C286.706 26.1671 286.328 26.2327 286.194 26.3045C285.495 26.7666 284.804 27.276 284.223 27.8637C283.847 28.2211 283.423 28.5868 283.11 29.0307ZM332.699 22.7822C332.874 22.9468 332.962 23.1751 332.766 23.4525C332.384 24.0547 332.103 24.6878 331.665 25.2508C328.564 29.003 325.407 32.716 321.718 35.8879C320.659 36.8021 319.488 37.6381 318.166 38.1594C316.395 38.9045 315.096 38.1551 314.76 36.2159C314.432 34.3241 315.283 32.7641 315.919 31.0951C315.981 30.8895 316.066 30.5339 315.947 30.4083C315.534 29.9927 315.324 30.4675 315.167 30.6895C314.048 32.1012 313.023 33.4965 311.959 34.9473C311.043 36.1289 310.071 37.2714 308.798 38.0765C307.313 39.0644 305.991 38.4651 305.775 36.6514C305.593 35.3189 306.105 34.061 306.516 32.7721C307.507 29.7751 308.965 26.9408 310.311 24.0283C310.451 23.7117 310.631 23.3397 310.211 23.1688C310.061 23.146 309.763 23.3925 309.598 23.5672C308.909 24.3686 308.228 25.2172 307.594 26.0577C305.083 29.5615 302.009 32.627 299.109 35.857C298.208 36.8412 297.243 37.739 295.832 38.032C294.177 38.3187 292.973 37.5529 292.923 35.8566C292.811 33.2453 293.903 31.1077 295.611 29.1557C296.026 28.7427 296.514 28.4635 297.052 28.7599C297.749 29.1264 297.516 29.7513 297.283 30.3762C296.678 31.9425 295.756 33.3687 295.411 35.036C295.343 35.4862 295.283 35.9837 295.71 36.202C296.082 36.3812 296.364 36.0401 296.671 35.8408C298.164 34.9002 299.364 33.6695 300.492 32.3051C303.373 28.6885 306.326 25.2056 309.318 21.6672C309.929 20.9768 310.746 20.3482 311.532 19.8224C312.404 19.2329 313.006 19.6158 313.233 20.6481C313.5 21.625 313.119 22.5191 312.746 23.4605C311.582 26.5849 310.324 29.7257 309.16 32.8501C308.818 33.6888 308.57 34.511 308.331 35.3806C308.3 35.4834 308.341 35.7198 308.46 35.8454C308.723 36.2383 308.894 35.8189 309.067 35.6916C310.559 34.459 311.748 32.889 312.954 31.4136C314.716 29.2087 316.414 26.9174 318.175 24.7125C318.982 23.7447 319.855 22.0347 321.226 22.9177C322.605 23.8481 321.249 25.3008 320.814 26.4478C319.912 28.5525 318.852 30.5873 318.005 32.7312C317.507 33.7918 316.475 35.4318 317.316 36.0657C318.434 36.8951 319.687 35.4115 320.724 34.6474C324.289 31.8866 327.314 28.5374 329.998 24.9062C330.593 24.1212 331.085 23.3053 331.965 22.7632C332.224 22.5721 332.469 22.5785 332.699 22.7822ZM81.6541 144.983C82.0425 145.257 81.9825 145.755 81.7642 146.182C81.3113 146.943 80.9694 147.781 80.4055 148.463C78.08 151.351 75.8182 154.324 73.2071 156.968C71.6782 158.548 69.9029 159.83 68.0129 160.45C66.0346 160.841 65.1159 160.318 64.7411 158.434C64.4726 157.166 64.1807 157.167 63.3494 157.993C62.479 158.875 61.4977 159.678 60.5636 160.473C59.7551 161.149 58.8274 161.699 57.7478 161.935C56.2589 162.339 55.2128 161.643 54.7616 160.162C54.4149 159.005 54.5576 157.859 54.9532 156.768C57.5095 150.431 61.7712 145.503 67.5084 141.782C67.7203 141.599 68.0123 141.597 68.2324 141.462C70.2315 140.628 71.8433 140.934 72.6256 142.357C73.5189 143.859 73.0689 146.324 71.7583 147.476C71.3427 147.889 70.9025 148.16 70.3167 147.872C69.7864 147.623 69.5544 147.127 69.5589 146.591C69.5534 145.715 69.7452 144.853 69.787 143.969C69.8288 143.085 69.2903 142.789 68.5909 143.251C67.5377 143.92 66.4845 144.59 65.6059 145.424C62.3591 148.617 59.8972 152.404 58.1321 156.558C57.8602 157.239 57.6829 157.903 57.561 158.606C57.4228 159.214 57.8976 159.425 58.3542 159.248C59.0864 158.975 59.794 158.56 60.4543 158.154C63.2601 156.353 65.4865 154.018 67.5219 151.425C67.843 151.029 68.1558 150.585 68.4687 150.141C68.7506 149.8 69.0161 149.364 69.4991 149.621C70.1322 149.901 70.0413 150.502 69.8394 151.024C69.5984 151.601 69.2465 152.101 69.0055 152.678C68.328 154.111 67.6505 155.544 67.0285 157.015C66.7711 157.498 66.672 158.051 67.085 158.467C67.5616 158.969 68.0246 158.548 68.5284 158.363C70.9923 157.401 72.7085 155.496 74.361 153.505C76.4437 150.903 78.8593 148.536 80.4817 145.527C80.6999 145.1 80.98 144.467 81.6541 144.983ZM85.3357 142.787C83.6467 144.005 83.082 145.808 82.6838 147.728C84.1555 148.35 85.5707 147.52 86.6995 147.568C90.8224 146.903 94.2859 145.524 97.2445 142.917C97.7156 142.543 98.2713 141.814 98.7807 142.505C99.1709 143.071 98.4324 143.588 97.9613 143.962C95.2537 146.331 92.1068 147.85 88.656 148.74C87.9548 148.91 87.2926 149.025 86.5832 149.147C86.0238 149.293 85.7482 149.389 85.9347 150.185C86.8964 153.77 84.0763 158.301 80.4281 159.177C78.7891 159.558 77.4265 158.722 77.0762 156.98C76.9288 156.129 76.7814 155.278 77.0678 154.4C77.3234 153.625 77.4288 152.827 77.7398 152.092C81.5155 142.669 85.5441 133.3 90.6887 124.469C91.6336 122.893 92.7368 121.386 94.0701 120.084C95.3643 118.837 97.2152 118.273 98.1503 118.89C99.4738 119.781 99.6003 121.075 99.4285 122.615C99.0559 126.089 97.5753 129.074 95.7228 131.879C93.049 135.849 89.6931 139.256 85.9796 142.286C85.7677 142.469 85.5558 142.652 85.3357 142.787ZM86.4077 138.85C86.2986 139.064 86.214 139.42 86.2859 139.554C86.5797 139.844 86.7507 139.424 86.8762 139.305C90.8142 135.603 94.403 131.572 96.6601 126.602C97.3213 125.074 97.9269 123.508 97.6712 121.75C97.5219 120.607 96.9361 120.318 96.144 121.089C95.2736 121.97 94.5142 122.93 93.8103 123.929C90.7227 128.604 88.6485 133.786 86.4077 138.85ZM83.2106 149.926C82.5466 149.749 81.7407 149.596 81.3433 150.396C80.4476 152.256 79.7574 154.178 79.4228 156.184C79.3319 156.785 79.6976 157.209 80.3679 157.141C82.1197 157.13 85.1018 153.252 84.7724 151.069C84.6823 150.548 83.9774 150.135 83.2106 149.926ZM132.663 136.151C133.179 136.597 132.749 137.208 132.475 137.596C131.388 139.197 130.024 140.602 128.66 142.008C125.789 144.843 122.824 147.695 119.588 150.106C118.811 150.679 118.049 151.347 116.993 151.433C115.732 151.748 114.994 151.145 114.639 149.94C114.299 148.538 114.598 147.171 115.095 145.818C115.956 143.477 116.975 141.206 118.106 139.012C118.691 137.888 119.236 136.819 119.821 135.695C120.148 135.054 120.149 133.933 119.096 134.603C118.703 134.866 118.501 135.388 118.219 135.729C116.326 138.298 114.099 140.632 112.159 143.209C110.234 145.88 108.373 148.638 106.615 151.427C106.045 152.354 105.645 153.982 104.237 153.446C102.576 152.857 103.435 151.344 103.728 150.222C104.144 148.689 104.758 147.17 105.483 145.729C105.841 144.985 106.207 144.288 106.574 143.591C106.901 142.95 107.552 142.204 107.729 141.54C107.913 140.631 107.009 141.324 106.806 141.554C103.213 145.001 100.358 149.052 97.4564 153.11C96.9871 153.776 96.5569 154.387 96.0877 155.052C95.6184 155.718 95.0445 156.061 94.2531 155.711C93.5091 155.353 93.4336 154.635 93.5472 153.885C93.599 153.34 93.7063 152.834 93.8609 152.32C95.0684 148.604 96.6481 145.066 98.4887 141.63C98.847 140.886 99.2735 139.692 100.342 140.237C101.292 140.657 100.991 141.733 100.657 142.618C99.8579 144.754 99.0585 146.89 98.2119 149.034C98.1583 149.287 97.9154 149.572 98.2793 149.704C98.5958 149.844 98.744 149.575 98.9086 149.4C100.333 147.497 101.749 145.547 103.173 143.644C104.433 141.916 105.859 140.305 107.587 139.032C108.192 138.586 108.883 138.076 109.723 138.71C110.453 139.266 110.497 140.086 110.242 140.861C109.84 142.197 109.399 143.589 108.792 144.863C108.682 145.077 108.614 145.527 108.923 145.62C109.231 145.713 109.338 145.207 109.503 145.033C110.801 143.249 112.045 141.426 113.343 139.642C114.994 137.359 116.803 135.146 118.795 133.145C119.171 132.787 119.595 132.422 119.972 132.064C120.733 131.397 121.558 130.815 122.557 131.519C123.5 132.184 122.985 133.15 122.785 133.964C122.082 136.375 120.904 138.577 119.877 140.801C118.701 143.294 117.311 145.678 116.658 148.373C116.534 148.784 116.229 149.275 116.579 149.604C117.031 149.965 117.637 149.811 118.069 149.492C119.287 148.648 120.497 147.757 121.643 146.779C125.206 143.726 128.531 140.422 131.451 136.75C131.781 136.401 132.036 135.626 132.663 136.151ZM151.78 132.889C152.144 133.021 152.09 133.274 151.934 133.496C151.747 133.821 151.615 134.184 151.411 134.414C148.567 137.684 145.214 140.262 140.935 141.149C139.997 141.36 139.62 141.717 139.206 142.422C138.13 144.362 136.895 146.233 135.199 147.695C134.485 148.355 133.771 149.014 132.93 149.501C131.688 150.203 130.31 150.685 128.939 149.802C127.624 148.958 127.67 147.538 127.741 146.259C127.766 145.28 128.036 144.308 128.37 143.422C129.866 139.12 131.9 135.114 134.631 131.474C135.79 130.007 137.132 128.752 138.839 127.92C139.917 127.393 141.06 127.243 142.137 127.836C142.667 128.086 143.025 128.462 142.934 129.062C142.876 129.852 142.275 129.761 141.469 129.608C140.318 129.71 139.281 130.474 138.388 131.506C134.643 135.759 132.188 140.715 130.644 146.146C130.451 146.715 130.179 147.396 130.789 147.826C131.391 148.209 132.068 147.897 132.547 147.57C134.826 146.104 136.526 144.104 137.821 141.737C138.039 141.309 138.155 140.851 137.892 140.458C136.029 137.857 137.673 135.819 138.962 133.696C139.228 133.26 139.596 132.856 139.964 132.451C140.458 131.927 140.999 131.395 141.799 131.792C142.654 132.229 142.643 133.01 142.396 133.832C141.963 135.271 141.577 136.702 141.097 138.149C140.973 138.56 140.677 139.099 140.923 139.397C141.289 139.821 141.927 139.564 142.383 139.388C145.084 138.384 147.466 136.949 149.441 134.853C150.052 134.163 150.688 133.614 151.307 132.971C151.441 132.899 151.669 132.811 151.78 132.889ZM188.753 125.854C188.927 126.018 189.015 126.247 188.82 126.524C188.437 127.126 188.157 127.759 187.719 128.322C184.617 132.075 181.461 135.788 177.772 138.959C176.712 139.874 175.542 140.71 174.219 141.231C172.448 141.976 171.149 141.227 170.814 139.287C170.486 137.396 171.336 135.836 171.973 134.167C172.035 133.961 172.119 133.605 172 133.48C171.587 133.064 171.377 133.539 171.221 133.761C170.101 135.173 169.076 136.568 168.012 138.019C167.096 139.2 166.125 140.343 164.852 141.148C163.366 142.136 162.045 141.537 161.828 139.723C161.646 138.39 162.159 137.133 162.569 135.844C163.56 132.847 165.018 130.012 166.365 127.1C166.505 126.783 166.684 126.411 166.265 126.24C166.115 126.218 165.816 126.464 165.652 126.639C164.962 127.44 164.281 128.289 163.647 129.129C161.136 132.633 158.062 135.699 155.163 138.929C154.262 139.913 153.297 140.811 151.886 141.104C150.231 141.39 149.026 140.624 148.976 138.928C148.865 136.317 149.956 134.179 151.664 132.227C152.08 131.814 152.567 131.535 153.106 131.831C153.803 132.198 153.57 132.823 153.337 133.448C152.731 135.014 151.809 136.44 151.465 138.108C151.396 138.558 151.336 139.055 151.764 139.274C152.136 139.453 152.418 139.112 152.724 138.912C154.218 137.972 155.417 136.741 156.545 135.377C159.426 131.76 162.379 128.277 165.371 124.739C165.983 124.048 166.799 123.42 167.585 122.894C168.457 122.304 169.06 122.687 169.287 123.72C169.554 124.697 169.173 125.591 168.8 126.532C167.636 129.656 166.377 132.797 165.213 135.922C164.871 136.76 164.624 137.583 164.385 138.452C164.354 138.555 164.395 138.791 164.514 138.917C164.777 139.31 164.948 138.89 165.121 138.763C166.612 137.531 167.802 135.961 169.008 134.485C170.769 132.28 172.467 129.989 174.229 127.784C175.036 126.816 175.909 125.106 177.279 125.989C178.658 126.92 177.302 128.372 176.868 129.519C175.966 131.624 174.905 133.659 174.059 135.803C173.56 136.863 172.529 138.503 173.369 139.137C174.487 139.967 175.741 138.483 176.777 137.719C180.343 134.958 183.368 131.609 186.051 127.978C186.646 127.193 187.138 126.377 188.019 125.835C188.278 125.644 188.522 125.65 188.753 125.854ZM207.159 123.3C207.523 123.432 207.469 123.684 207.313 123.906C207.126 124.231 206.994 124.595 206.79 124.825C203.946 128.094 200.593 130.672 196.314 131.559C195.376 131.77 194.999 132.128 194.585 132.833C193.509 134.773 192.274 136.643 190.578 138.106C189.864 138.765 189.151 139.425 188.309 139.912C187.067 140.614 185.689 141.096 184.318 140.213C183.003 139.369 183.049 137.948 183.12 136.669C183.145 135.691 183.415 134.718 183.749 133.832C185.245 129.53 187.279 125.524 190.01 121.885C191.169 120.418 192.511 119.162 194.218 118.331C195.296 117.803 196.439 117.654 197.516 118.247C198.046 118.496 198.404 118.873 198.313 119.473C198.255 120.263 197.654 120.172 196.848 120.019C195.697 120.121 194.66 120.885 193.767 121.916C190.022 126.17 187.567 131.125 186.023 136.556C185.83 137.126 185.558 137.806 186.168 138.236C186.77 138.619 187.447 138.307 187.926 137.981C190.205 136.514 191.905 134.515 193.2 132.147C193.418 131.72 193.534 131.261 193.271 130.868C191.408 128.268 193.052 126.23 194.341 124.107C194.607 123.671 194.975 123.266 195.343 122.861C195.837 122.337 196.378 121.805 197.178 122.203C198.033 122.639 198.022 123.421 197.775 124.243C197.342 125.682 196.956 127.113 196.476 128.56C196.352 128.971 196.056 129.509 196.302 129.808C196.668 130.231 197.306 129.975 197.762 129.798C200.463 128.795 202.845 127.359 204.82 125.264C205.431 124.573 206.067 124.025 206.686 123.382C206.82 123.31 207.048 123.222 207.159 123.3ZM236.771 94.01C237.26 94.0227 237.704 94.3355 237.73 94.7694C237.828 95.3369 237.316 95.4743 236.891 95.548C236.095 95.7345 235.305 95.6764 234.532 95.7128C227.385 96.0736 220.977 98.4499 215.227 102.661C214.669 103.098 214.001 103.458 215.094 104.145C218.413 106.152 219.295 109.556 219.742 112.986C220.871 121.754 217.159 128.729 210.978 134.671C210.021 135.616 208.857 136.207 207.469 136.35C205.513 136.591 204.254 135.787 203.681 133.888C203.294 132.494 203.49 131.096 203.837 129.721C205.014 124.986 207.26 120.798 210.592 117.249C212.199 115.558 214.069 114.26 216.538 114.174C217.887 114.086 218.136 113.556 217.868 112.287C217.202 109.285 216.293 106.568 212.924 105.398C211.421 104.878 211.375 103.766 212.605 102.433C214.009 100.972 215.778 99.9347 217.571 99.0395C221.724 96.859 226.053 95.135 231.044 94.417C232.722 93.9803 234.75 93.8728 236.771 94.01ZM218.151 118.425C218.236 118.069 218.178 117.738 218.216 117.391C218.13 116.334 217.491 116.298 216.703 116.532C215.381 117.053 214.186 117.748 213.198 118.795C209.928 122.138 207.752 126.169 206.684 130.689C206.422 131.709 205.783 133.086 207.074 133.788C208.207 134.42 209.091 133.341 209.861 132.721C214.327 128.976 216.94 124.091 218.151 118.425ZM254.712 115.26C254.975 115.653 254.444 116.525 254.153 116.819C250.314 121.088 246.474 125.358 241.744 128.71C240.487 129.61 239.136 130.526 237.693 130.63C234.571 131.17 233.135 129.909 233.194 126.878C233.176 126.492 233.559 125.889 233.132 125.671C232.443 125.352 230.426 128.332 229.932 128.856C228.615 130.253 226.961 131.952 225.03 132.335C223.335 132.677 222.32 131.879 222.301 130.08C222.297 129.496 222.38 128.848 222.574 128.279C223.658 124.973 225.327 121.956 227.266 119.087C227.423 118.865 227.587 118.691 227.791 118.461C228.128 118.159 228.546 118.038 229.021 118.248C229.496 118.458 229.483 118.947 229.312 119.366C228.031 122.657 226.591 125.878 225.151 129.099C224.74 130.096 225.383 130.715 226.302 130.118C228.974 128.388 231.217 126.149 233.111 123.58C235.669 120.068 237.561 116.087 239.945 112.41C240.093 112.141 240.289 111.864 240.556 111.72C241.437 111.178 241.845 112.13 241.676 112.841C241.399 114.058 240.586 115.271 240.096 116.379C239.318 118.072 238.531 119.719 237.753 121.412C237.044 122.948 236.28 124.444 235.88 126.072C235.736 126.925 235.266 127.591 235.848 128.416C236.62 129.5 237.934 128.931 238.934 128.515C241.412 127.355 243.603 125.66 245.62 123.801C248.107 121.568 250.531 119.248 252.661 116.639C252.904 116.353 254.313 114.647 254.712 115.26ZM285.328 109.667C285.993 110.136 285.098 110.876 284.746 111.375C281.628 116.153 277.866 120.312 272.866 123.224C272.559 123.423 272.237 123.528 271.922 123.68C270.262 124.503 268.561 125.09 266.936 123.861C265.31 122.632 265.741 120.901 266.133 119.226C266.855 116.081 268.479 113.364 269.937 110.529C270.077 110.213 270.264 109.888 270.404 109.572C270.553 109.302 270.929 108.945 270.644 108.702C270.303 108.42 270.092 108.895 269.889 109.125C267.658 111.996 265.308 114.741 262.672 117.243C261.378 118.49 260.075 119.69 258.438 120.363C256.534 121.18 255.222 120.92 254.339 119.758C253.4 118.557 253.279 115.606 254.156 114.48C254.594 113.917 255.013 114.088 255.395 114.606C255.786 115.172 255.506 115.805 255.635 116.27C255.919 118.754 256.679 119.207 258.724 118.073C260.674 116.956 262.258 115.415 263.779 113.788C265.785 111.589 267.783 109.343 269.781 107.098C270.15 106.693 270.471 106.296 270.894 105.931C271.499 105.485 272.055 104.755 272.965 105.231C274.034 105.777 273.622 106.773 273.367 107.548C272.734 109.801 271.626 111.844 270.613 113.871C269.639 115.842 268.618 117.821 268.063 119.963C267.393 122.564 268.036 123.183 270.716 122.622C272.087 122.384 273.116 121.573 274.153 120.809C277.946 117.96 281.105 114.539 283.906 110.741C284.258 110.242 284.654 109.15 285.328 109.667ZM312.215 105.303C312.478 105.696 311.947 106.567 311.657 106.861C307.817 111.131 303.977 115.401 299.248 118.753C297.991 119.653 296.64 120.569 295.196 120.672C292.075 121.213 290.638 119.951 290.698 116.921C290.68 116.534 291.063 115.932 290.635 115.714C289.947 115.395 287.93 118.374 287.436 118.898C286.119 120.296 284.464 121.995 282.533 122.378C280.839 122.72 279.824 121.921 279.805 120.122C279.801 119.538 279.884 118.891 280.077 118.321C281.161 115.016 282.831 111.999 284.77 109.13C284.926 108.908 285.091 108.733 285.295 108.503C285.632 108.201 286.05 108.08 286.524 108.29C286.999 108.5 286.986 108.99 286.816 109.409C285.534 112.7 284.095 115.921 282.655 119.142C282.243 120.139 282.886 120.758 283.806 120.16C286.478 118.431 288.721 116.191 290.614 113.623C293.172 110.111 295.065 106.129 297.449 102.453C297.597 102.184 297.792 101.906 298.06 101.762C298.94 101.22 299.349 102.173 299.179 102.884C298.903 104.101 298.09 105.313 297.6 106.421C296.821 108.115 296.035 109.761 295.256 111.455C294.548 112.99 293.784 114.487 293.384 116.115C293.239 116.968 292.77 117.634 293.351 118.459C294.124 119.543 295.438 118.974 296.438 118.558C298.916 117.398 301.107 115.703 303.123 113.844C305.611 111.611 308.035 109.291 310.164 106.681C310.407 106.396 311.817 104.69 312.215 105.303ZM57.0663 227.289C57.5739 227.689 57.1583 228.102 56.9236 228.435C52.9311 233.51 48.8749 238.499 43.4133 242.124C42.2737 242.858 40.9758 243.521 39.7606 243.536C34.8891 244.38 31.9429 241.431 33.2559 236.917C34.7835 231.392 38.1649 227.006 43.0298 223.874C44.3423 223.014 45.8721 222.846 47.3319 222.837C49.131 222.818 50.5692 224.371 50.4774 226.092C50.2903 228.95 48.948 231.326 46.9007 233.288C46.5715 233.637 46.0203 233.83 45.5165 234.015C44.7761 234.24 44.1121 234.063 43.6891 233.308C43.3298 232.64 43.3961 231.897 43.9373 231.365C44.5257 230.825 45.2415 230.457 45.8936 230.004C46.9468 229.334 47.9363 228.578 48.4656 227.415C48.7457 226.782 49.3405 225.997 48.5782 225.252C47.8714 224.546 47.1047 224.338 46.136 224.652C45.2147 224.957 44.3734 225.444 43.6512 226.056C40.2134 228.99 37.6551 232.502 35.9454 236.695C35.6735 237.375 35.5435 238.031 35.5245 238.765C35.4901 240.817 36.6981 242.167 38.7646 242.004C39.9715 241.941 41.1539 241.736 42.3181 241.145C45.0003 239.755 47.3004 237.847 49.2903 235.553C51.4676 232.936 54.0251 230.544 56.0195 227.714C56.2623 227.429 56.5588 226.89 57.0663 227.289ZM94.7808 201.322C97.1228 201.062 98.4809 202.435 98.2037 204.772C97.7156 208.705 95.6366 211.891 93.1774 214.85C89.113 219.792 84.2699 223.894 79.8562 228.507C77.8809 230.603 75.93 232.84 74.3594 235.304C73.6719 236.398 76.0349 235.696 76.405 235.584C77.5156 235.245 78.7434 234.74 79.1054 234.58C82.2397 233.55 85.5322 232.59 88.8675 232.159C89.8134 231.995 90.7593 231.831 91.7317 232.101C92.2929 232.248 92.7286 232.513 92.7404 233.145C92.7769 233.918 92.1948 234.213 91.5799 234.32C90.5231 234.405 89.4725 234.246 88.4156 234.332C83.5259 234.789 78.9027 236.223 74.4006 238.074C73.1727 238.579 71.9158 239.479 70.7715 238.215C69.5162 236.874 70.6048 235.565 71.3315 234.416C73.5341 230.819 76.4354 227.881 79.4949 225.013C83.8177 221.001 88.6089 217.443 92.5742 213.054C94.1649 211.269 95.6446 209.405 96.6804 207.228C97.0696 206.382 97.2614 205.52 97.3032 204.636C97.3659 203.31 96.7473 202.832 95.3512 202.928C94.247 203.022 93.3275 203.62 92.4553 204.209C90.0751 205.936 88.1552 208.071 86.3154 210.387C84.9612 212.132 83.5515 213.837 82.0863 215.504C81.8435 215.789 81.4279 216.202 80.9531 215.992C80.4228 215.743 80.269 215.136 80.3763 214.631C80.5536 213.967 80.7782 213.295 81.1611 212.692C83.5038 208.779 86.5369 205.477 90.3323 202.92C91.692 202.052 93.2118 201.545 94.7808 201.322ZM121.3 203.599C121.038 210.805 118.34 217.167 114.969 223.304C113.721 225.663 112.252 227.866 110.449 229.835C109.587 230.763 108.717 231.645 107.663 232.314C104.448 234.284 101.735 233.243 100.757 229.564C100.652 229.241 100.642 228.902 100.495 228.051C100.344 226.616 100.395 224.658 100.698 222.754C101.669 216.546 103.676 210.694 106.783 205.284C107.462 204.144 108.094 203.011 109.511 202.473C110.062 202.281 110.468 201.528 110.962 201.004C112.089 199.64 113.392 198.44 115.013 197.672C117.396 196.529 119.31 197.172 120.54 199.492C121.251 200.782 121.346 202.178 121.3 203.599ZM109.736 226.84C114.076 221.802 117.031 216.078 118.853 209.722C119.477 207.422 119.652 205.053 119.629 202.67C119.566 201.463 119.148 200.171 117.929 199.603C116.774 199.121 115.903 200.003 115.087 200.631C114.702 200.941 114.342 201.393 113.965 201.751C111.951 203.902 110.649 206.515 109.348 209.127C107.563 212.602 106.972 216.504 104.736 219.912C103.322 222.154 103.579 225.325 103.752 227.73C104.219 230.426 104.955 230.737 106.833 229.487C107.925 228.762 108.89 227.864 109.736 226.84ZM147.389 192.212C149.731 191.953 151.089 193.325 150.811 195.663C150.323 199.596 148.244 202.781 145.785 205.74C141.721 210.682 136.878 214.785 132.464 219.397C130.489 221.493 128.538 223.731 126.967 226.195C126.28 227.288 128.643 226.587 129.013 226.474C130.123 226.136 131.351 225.631 131.713 225.471C134.847 224.441 138.14 223.481 141.475 223.049C142.421 222.886 143.367 222.722 144.339 222.992C144.901 223.138 145.336 223.404 145.348 224.035C145.385 224.808 144.803 225.104 144.188 225.21C143.131 225.296 142.08 225.137 141.023 225.222C136.134 225.679 131.51 227.113 127.008 228.965C125.78 229.469 124.524 230.369 123.379 229.106C122.124 227.764 123.213 226.455 123.939 225.307C126.142 221.71 129.043 218.772 132.103 215.904C136.425 211.891 141.217 208.334 145.182 203.945C146.773 202.159 148.252 200.295 149.288 198.119C149.677 197.272 149.869 196.411 149.911 195.527C149.974 194.2 149.355 193.723 147.959 193.819C146.855 193.912 145.935 194.51 145.063 195.099C142.683 196.827 140.763 198.962 138.923 201.278C137.569 203.022 136.159 204.728 134.694 206.394C134.451 206.68 134.036 207.093 133.561 206.883C133.031 206.634 132.877 206.027 132.984 205.521C133.161 204.857 133.386 204.185 133.769 203.583C136.112 199.67 139.145 196.368 142.94 193.811C144.3 192.942 145.82 192.435 147.389 192.212ZM153.116 223.518C152.072 223.114 151.192 222.536 151.121 221.282C150.994 219.988 151.756 219.321 152.849 220.008C157.736 222.913 165.019 220.239 169.101 215.684C171.351 213.2 173.259 210.434 173.679 206.951C174.018 204.408 173.073 203.451 170.558 203.838C168.327 204.175 166.391 205.095 164.513 206.346C163.209 207.254 161.904 208.161 160.52 208.888C159.671 209.328 158.56 209.666 157.93 208.557C157.355 207.488 157.989 206.647 158.869 206.105C160.332 205.267 161.802 204.477 163.257 203.592C167.831 200.754 172.406 197.915 176.042 193.876C176.905 192.947 177.664 191.987 178.035 190.754C178.53 189.11 177.806 188.309 176.079 188.462C174.541 188.582 173.212 189.348 171.867 190.02C168.477 191.824 165.589 194.273 162.764 196.808C161.869 197.548 161.021 198.279 160.126 199.019C159.789 199.321 159.341 199.545 158.913 199.326C158.366 198.983 158.41 198.39 158.517 197.885C158.672 197.371 158.929 196.888 159.25 196.491C163.109 191.487 168.028 188.103 174.205 186.643C175.978 186.19 177.872 186.154 179.073 187.749C180.275 189.343 179.56 191.123 178.718 192.73C177.339 195.454 175.11 197.496 172.946 199.624C172.405 200.157 171.761 200.658 171.172 201.198C170.999 201.325 170.812 201.65 170.845 201.839C170.849 202.423 171.328 202.097 171.628 202.142C174.527 202.566 175.712 204.066 175.305 207.059C174.469 213.488 170.615 217.955 165.524 221.467C163.701 222.757 161.599 223.559 159.344 223.755C157.248 224.313 155.141 224.239 153.116 223.518ZM221.073 198.988C221.864 199.338 221.121 200.392 220.794 201.033C218.71 204.755 216.396 208.274 213.203 211.214C211.736 212.588 210.023 213.664 208.237 214.607C207.38 214.999 206.536 215.193 205.669 215.246C203.586 215.315 202.251 213.792 202.466 211.66C202.696 209.331 203.701 207.257 204.975 205.331C206.288 203.35 207.76 201.439 209.128 199.497C209.832 198.498 210.528 197.452 211.176 196.414C211.333 196.192 211.757 195.827 211.226 195.578C211.068 195.508 210.753 195.66 210.533 195.795C209.474 196.709 208.478 197.71 207.601 198.836C206.92 199.685 206.222 200.439 205.478 201.201C205.227 201.439 204.793 201.466 204.46 201.231C204.11 200.902 204.251 200.585 204.438 200.261C205.984 197.655 207.816 195.291 210.346 193.587C211.226 193.045 212.407 192.548 213.335 193.41C214.09 194.108 213.93 195.158 213.613 196.139C213.079 197.839 212.071 199.329 211.054 200.771C209.724 202.658 208.339 204.505 207.01 206.392C206.071 207.723 205.26 209.228 204.765 210.872C204.025 213.631 205.785 213.667 207.848 212.92C209.682 212.262 211.789 210.923 212.455 210.271C215.54 207.545 217.839 204.224 219.686 200.543C220.06 199.894 220.329 198.629 221.073 198.988ZM240.666 195.644C241.03 195.775 240.976 196.028 240.82 196.25C240.632 196.575 240.5 196.939 240.297 197.169C237.453 200.438 234.099 203.016 229.82 203.903C228.882 204.114 228.506 204.472 228.092 205.177C227.015 207.117 225.78 208.987 224.085 210.45C223.371 211.109 222.657 211.769 221.816 212.255C220.573 212.958 219.195 213.44 217.825 212.557C216.509 211.713 216.556 210.292 216.626 209.013C216.652 208.035 216.922 207.062 217.256 206.176C218.752 201.874 220.786 197.868 223.517 194.229C224.676 192.762 226.017 191.506 227.724 190.675C228.802 190.147 229.945 189.998 231.022 190.591C231.553 190.84 231.91 191.217 231.819 191.817C231.761 192.606 231.161 192.516 230.355 192.363C229.203 192.465 228.167 193.229 227.273 194.26C223.528 198.514 221.074 203.469 219.53 208.9C219.336 209.47 219.064 210.15 219.675 210.58C220.277 210.963 220.953 210.651 221.433 210.324C223.712 208.858 225.412 206.859 226.707 204.491C226.925 204.064 227.04 203.605 226.778 203.212C224.915 200.612 226.559 198.574 227.848 196.451C228.113 196.015 228.481 195.61 228.85 195.205C229.344 194.681 229.885 194.149 230.684 194.547C231.539 194.983 231.528 195.764 231.281 196.587C230.848 198.026 230.463 199.456 229.983 200.904C229.859 201.315 229.562 201.853 229.809 202.151C230.175 202.575 230.812 202.319 231.269 202.142C233.969 201.139 236.351 199.703 238.327 197.608C238.938 196.917 239.574 196.369 240.193 195.726C240.327 195.654 240.555 195.565 240.666 195.644ZM263.12 191.414C263.416 191.997 262.897 192.379 262.465 192.697C259.55 194.712 257.009 197.198 254.69 199.84C252.848 201.864 251.015 203.935 249.22 205.951C248.484 206.761 248.072 207.758 247.707 208.746C245.907 213.54 244.106 218.333 242.25 223.088C241.521 225.065 240.539 226.989 239.279 228.717C238.559 229.621 237.767 230.392 236.761 231.053C235.354 231.93 233.91 232.034 232.539 231.151C231.01 230.198 230.74 228.637 231.037 226.978C231.527 224.457 233.084 222.483 234.54 220.477C237.732 216.125 241.312 212.046 245.028 208.187C247.631 205.496 248.232 201.933 249.949 198.908C250.019 198.749 249.978 198.513 249.915 198.426C249.574 198.144 249.45 198.556 249.38 198.714C247.744 200.8 246.227 203.011 244.416 204.932C243.138 206.274 241.813 207.624 240.225 208.581C237.607 210.057 235.714 208.972 235.584 205.974C235.544 204.617 235.812 203.353 236.381 202.134C238.794 196.942 242.151 192.415 246.523 188.686C247.85 187.628 249.249 186.704 250.96 186.457C253.135 186.08 254.623 186.796 254.957 188.444C255.103 189.003 255.098 189.54 254.619 189.866C254.045 190.209 253.593 189.849 253.361 189.353C252.889 188.315 252.235 188.477 251.425 188.86C250.425 189.277 249.489 189.78 248.689 190.503C244.498 194.152 241.203 198.473 238.86 203.507C238.33 204.67 237.338 206.255 238.511 207.124C239.502 207.78 240.716 206.352 241.556 205.573C245.259 202.204 248.114 198.154 250.977 194.15C251.485 193.429 252.041 192.7 252.549 191.978C252.854 191.487 253.333 191.161 253.872 191.457C254.505 191.737 254.358 192.298 254.156 192.82C253.792 193.809 253.474 194.79 253.062 195.787C252.541 196.997 251.973 198.216 251.499 199.419C251.328 199.838 250.701 200.434 251.35 200.808C251.722 200.988 252.058 200.394 252.34 200.052C254.447 197.593 256.712 195.203 259.216 193.065C259.938 192.453 260.716 191.879 261.494 191.306C262.059 190.916 262.705 190.707 263.12 191.414ZM244.156 212.43C244.257 212.169 244.366 211.956 244.183 211.744C243.881 211.406 243.757 211.817 243.632 211.937C241.374 214.373 239.228 216.888 237.248 219.521C236.254 220.813 235.268 222.153 234.385 223.524C233.729 224.515 232.883 225.538 232.487 226.629C232.434 226.882 232.38 227.135 232.374 227.38C232.379 228.256 232.685 229.177 233.382 229.544C233.984 229.926 234.716 229.654 235.242 229.319C236.563 228.506 237.471 227.277 238.22 225.978C240.592 221.67 242.211 216.956 244.156 212.43ZM282.452 188.359C282.841 188.633 282.781 189.13 282.562 189.558C282.11 190.318 281.768 191.157 281.204 191.839C278.878 194.726 276.616 197.7 274.005 200.344C272.476 201.924 270.701 203.206 268.811 203.825C266.833 204.217 265.914 203.694 265.539 201.81C265.271 200.541 264.979 200.543 264.148 201.369C263.277 202.251 262.296 203.054 261.362 203.849C260.553 204.525 259.626 205.075 258.546 205.311C257.057 205.715 256.011 205.019 255.56 203.538C255.213 202.38 255.356 201.235 255.751 200.144C258.308 193.807 262.569 188.879 268.307 185.158C268.519 184.975 268.811 184.973 269.031 184.838C271.03 184.004 272.642 184.31 273.424 185.733C274.317 187.235 273.867 189.7 272.557 190.852C272.141 191.265 271.701 191.536 271.115 191.248C270.585 190.999 270.353 190.503 270.357 189.966C270.352 189.091 270.543 188.229 270.585 187.345C270.627 186.461 270.089 186.165 269.389 186.627C268.336 187.296 267.283 187.966 266.404 188.8C263.157 191.993 260.695 195.78 258.93 199.934C258.658 200.615 258.481 201.279 258.359 201.982C258.221 202.59 258.696 202.8 259.152 202.624C259.885 202.351 260.592 201.936 261.253 201.529C264.058 199.728 266.285 197.394 268.32 194.801C268.641 194.404 268.954 193.96 269.267 193.517C269.549 193.175 269.814 192.74 270.297 192.997C270.93 193.277 270.84 193.877 270.638 194.4C270.397 194.977 270.045 195.477 269.804 196.054C269.126 197.487 268.449 198.919 267.827 200.391C267.569 200.874 267.47 201.427 267.883 201.843C268.36 202.345 268.823 201.924 269.327 201.739C271.791 200.776 273.507 198.872 275.159 196.88C277.242 194.279 279.658 191.912 281.28 188.903C281.498 188.476 281.778 187.843 282.452 188.359Z" fill="currentColor"/>
</svg>
