<svg width="321" height="253" viewBox="0 0 321 253" fill="none" xmlns="http://www.w3.org/2000/svg">
<path d="M24.4326 84.5156C22.0413 86.249 20.2666 85.4481 19.7186 82.5877C19.3075 81.1284 19.6917 79.6898 19.931 78.329C20.5259 75.0595 21.5751 71.9753 22.7445 68.9758C27.3638 57.2517 32.7981 45.967 38.0521 34.5553C38.4225 33.6468 38.9733 32.8653 39.4639 32.0415C39.8787 31.3892 40.3871 30.6679 41.2867 30.9871C42.2465 31.3486 41.8583 32.1547 41.7263 32.9164C41.3353 34.6201 40.7127 36.2055 40.0989 37.8423C37.0617 45.5982 33.4589 53.1354 30.1901 60.7731C27.6622 66.5938 25.1854 72.4056 23.4547 78.5632C23.1286 79.7279 22.3632 81.7075 22.9889 81.9686C24.2827 82.4306 25.1191 80.8609 26.0108 79.9149C29.8671 75.9751 32.9421 71.4847 35.8879 66.8582C40.2564 60.0855 44.4446 53.1858 48.7529 46.3708C50.1579 44.1221 51.7254 41.898 53.2417 39.6828C53.6653 39.0817 54.1402 38.4717 54.6752 37.9041C55.4398 37.1385 56.3246 36.4575 57.44 37.1087C58.4264 37.624 58.4501 38.6754 58.2 39.6686C57.8916 40.9358 57.541 42.2631 57.0701 43.5057C55.2889 48.4582 53.0023 53.2344 50.8271 58.044C49.3434 61.3618 47.7996 64.6373 46.8303 68.1826C46.7141 68.7305 46.5979 69.2784 46.4905 69.8775C46.4324 70.1514 46.4432 70.5189 46.7684 70.5682C46.9822 70.5839 47.2808 70.4794 47.4591 70.2902C49.3893 68.6367 50.7184 66.5594 51.9785 64.3886C56.1824 57.275 59.46 49.6886 62.987 42.3228C67.9573 32.0156 72.8852 21.7686 79.3739 12.3067C80.0429 11.2937 80.8144 10.263 81.5947 9.28347C82.1543 8.55328 82.9632 8.04379 83.8048 8.6369C84.5951 9.23889 84.3872 10.172 83.9478 10.987C83.7025 11.3988 83.4572 11.8107 83.1518 12.1803C75.1968 22.3182 69.3438 33.6226 63.6622 45.0029C59.7027 52.9185 56.1886 60.9681 51.5255 68.4779C50.6201 69.954 49.6546 71.3877 48.3796 72.5584C47.4101 73.3596 46.3115 74.0248 44.9398 73.4179C43.7396 72.8869 43.3996 71.8376 43.1955 70.6591C42.9806 69.1131 43.1933 67.5986 43.6199 66.0999C44.5803 62.5032 46.2088 59.1076 47.7348 55.7297C49.3456 52.2316 50.9564 48.7334 52.576 45.2866C52.6854 45.0038 52.8282 44.6096 52.708 44.5249C52.2005 44.0322 52.1109 44.7338 51.9838 44.9141C48.3985 49.8097 45.2852 54.9928 42.0517 60.0913C37.2527 67.7301 32.5739 75.4537 26.6928 82.3299C25.9884 83.138 25.275 83.8948 24.4326 84.5156Z" fill="currentColor"/>
<path d="M85.5499 51.5565C86.1845 51.8688 85.7943 52.3585 85.6002 52.7616C84.4959 55.2221 82.748 57.319 80.9824 59.3135C77.0522 63.741 72.4411 67.2837 66.9065 69.4559C64.1348 70.5163 62.0753 69.2897 61.6721 66.3515C61.3744 65.242 61.6916 64.026 62.1201 62.8436C63.8658 57.6861 66.3751 52.9769 69.9398 48.8766C70.9831 47.5877 72.2936 46.6219 73.7509 45.8946C74.7647 45.3496 75.8585 45.2658 76.702 46.1752C77.4253 46.9999 77.449 48.0513 77.0028 49.1312C76.7082 49.8683 76.1732 50.4359 75.6293 50.9523C74.1514 52.4748 72.3552 53.6829 70.3501 54.294C68.7972 54.774 67.9568 55.7111 67.2809 56.9892C66.1657 59.0822 65.1106 61.2175 64.3983 63.5046C63.954 64.9008 63.3915 66.5287 64.6292 67.5809C65.6777 68.4549 67.1104 67.8901 68.4494 67.3944C73.5918 65.3957 77.5792 61.9082 80.8256 57.4936C82.1054 55.7415 83.3163 53.8959 84.6385 52.0837C84.808 51.8433 85.0956 51.3713 85.5499 51.5565ZM71.3036 50.9625C71.2278 51.1339 70.9736 51.4946 71.0603 51.6907C71.216 51.9803 71.8466 51.6601 72.0939 51.5645C72.8093 51.1239 73.6093 50.5632 74.1867 49.9355C74.5522 49.6083 74.9089 49.2299 75.0941 48.7757C75.1788 48.6555 75.2882 48.3727 75.3128 48.2101C75.3039 48.1588 75.3039 48.1588 75.2951 48.1076C75.1995 47.8603 74.8408 47.9224 74.6447 48.0091C73.887 48.5097 73.1382 49.0616 72.5096 49.6982C72.1017 50.0854 71.6426 50.4816 71.3036 50.9625Z" fill="currentColor"/>
<path d="M130.206 44.3517C131.141 44.8758 129.645 46.2958 129.121 47.2309C126.973 50.9804 124.465 54.4756 121.587 57.6654C120.305 59.1012 118.903 60.4522 117.147 61.284C114.863 62.4183 112.554 60.971 112.65 58.4741C112.664 56.7301 113.055 55.0264 113.789 53.4744C114.506 51.8199 115.273 50.1566 116.041 48.4932C116.192 48.1503 116.489 47.7296 116.179 47.4665C115.672 46.9739 115.368 47.6597 115.045 47.9267C113.227 49.6138 111.657 51.5216 110.096 53.4806C107.381 56.695 104.795 60.0454 101.839 63.0904C101.482 63.4688 101.092 63.9585 100.615 64.2522C99.7639 64.8218 98.8977 64.3913 98.7203 63.3665C98.5094 62.4531 98.8975 61.6471 99.2433 60.9011C106.187 44.9221 111.707 28.3451 119.731 12.8124C120.17 11.9975 120.425 10.4229 121.334 10.7933C122.534 11.3243 121.56 12.7068 121.189 13.6154C118.462 20.4204 115.522 27.2097 112.795 34.0148C109.63 41.951 106.62 49.8607 103.516 57.8393C103.364 58.1822 103.016 58.6119 103.317 58.8237C103.875 59.3074 104.059 58.5369 104.27 58.2363C107.215 54.8238 110.1 51.369 112.994 47.9653C113.868 46.9168 114.82 46.0132 115.952 45.2367C116.522 44.874 117.084 44.4601 117.778 44.8148C118.593 45.2542 118.709 45.9203 118.748 46.7578C118.745 47.6555 118.46 48.4438 118.123 49.241C117.56 50.8688 116.886 52.4631 116.264 54.0486C115.793 55.2912 115.271 56.5426 115.245 57.9192C115.195 59.4583 115.444 59.679 116.255 59.4858C118.082 59.0639 118.983 58.1691 119.892 57.3256C123.207 54.2185 125.421 50.2464 127.945 46.5373C128.581 45.6357 128.747 43.5487 130.206 44.3517Z" fill="currentColor"/>
<path d="M152.707 40.0332C153.179 40.3209 153.063 40.8687 152.826 41.3319C152.387 42.1468 151.965 43.0642 151.354 43.8032C148.886 46.9221 146.436 50.1434 143.607 53.008C141.9 54.7286 139.976 56.1171 137.929 56.7883C135.837 57.2033 134.842 56.6368 134.384 54.605C134.094 53.2305 133.777 53.2325 132.877 54.1273C131.934 55.0821 130.871 55.9523 129.859 56.8136C128.983 57.5457 127.969 58.0907 126.86 58.3884C125.247 58.826 124.062 58.0812 123.573 56.4771C123.249 55.2139 123.352 53.9822 123.832 52.7909C126.601 45.9257 131.167 40.5966 137.373 36.5138C137.612 36.3669 137.928 36.3649 138.167 36.2181C140.384 35.3065 142.078 35.6463 142.977 37.1794C143.894 38.815 143.406 41.4853 141.986 42.7339C141.536 43.1813 141.11 43.4661 140.476 43.1538C139.901 42.8838 139.599 42.3557 139.604 41.7744C139.649 40.8166 139.806 39.8923 139.851 38.9346C139.896 37.9768 139.313 37.6556 138.555 38.1562C137.465 38.8727 136.324 39.598 135.373 40.5016C131.804 43.9694 129.137 48.0726 127.225 52.5728C126.93 53.3099 126.738 54.0292 126.606 54.7909C126.456 55.4501 127.022 55.6688 127.465 55.4865C128.259 55.1908 129.025 54.7414 129.74 54.3009C132.78 52.3497 135.243 49.8122 137.397 47.0117C137.796 46.5732 138.084 46.1012 138.423 45.6203C138.728 45.2507 139.067 44.7699 139.59 45.0487C140.225 45.361 140.126 46.0113 139.908 46.5769C139.698 47.1938 139.316 47.7348 139.004 48.3694C138.27 49.9213 137.587 51.4645 136.862 53.0677C136.635 53.5821 136.476 54.19 136.924 54.6403C137.44 55.1842 137.942 54.7279 138.487 54.5278C141.208 53.4763 143.067 51.4128 144.806 49.2646C147.113 46.4374 149.679 43.8822 151.437 40.6225C151.673 40.1594 152.028 39.4647 152.707 40.0332Z" fill="currentColor"/>
<path d="M174.541 35.5664C174.815 35.6245 175.244 35.9723 175.34 36.2196C175.455 36.8857 174.892 36.9833 174.43 37.0631C171.512 37.8851 168.488 36.8784 166.984 34.289C166.214 32.8918 166.006 33.825 165.625 34.3659C163.728 37.1221 161.83 39.8783 159.941 42.6857C157.756 45.9139 155.528 49.2022 153.343 52.4304C152.496 53.6326 151.571 54.6899 150.267 55.3906C148.921 56.1514 147.841 55.7051 147.473 54.1858C147.21 53.2812 147.204 52.3323 147.464 51.3903C148.473 47.4685 149.877 43.6896 151.795 40.1383C151.913 39.9067 152.083 39.6662 152.252 39.4258C152.854 38.6355 153.559 37.8275 154.665 38.4275C155.609 39.0028 155.257 40.0138 154.971 40.8021C153.862 43.844 152.59 46.8612 151.421 49.8607C151.16 50.4865 150.898 51.1122 150.689 51.729C150.579 52.0118 150.53 52.337 150.924 52.4798C151.036 52.5133 151.265 52.3153 151.401 52.1862C152.752 50.844 154.034 49.4082 155.135 47.8454C158.101 43.6377 160.706 39.1758 163.473 34.7386C164.218 33.5541 165.065 32.3519 165.861 31.1586C166.37 30.4373 166.921 29.6559 167.914 29.9061C168.856 30.1651 169.109 31.0184 169.064 31.9762C169.463 34.2819 170.178 35.0553 172.514 35.4424C173.215 35.532 173.882 35.4167 174.541 35.5664Z" fill="currentColor"/>
<path d="M193.379 32.8849C194.013 33.1972 193.623 33.6869 193.429 34.09C192.325 36.5505 190.577 38.6474 188.811 40.6419C184.881 45.0694 180.27 48.6121 174.735 50.7843C171.964 51.8447 169.904 50.6181 169.501 47.6799C169.203 46.5704 169.521 45.3544 169.949 44.172C171.695 39.0145 174.204 34.3053 177.769 30.205C178.812 28.9161 180.123 27.9503 181.58 27.223C182.594 26.678 183.687 26.5942 184.531 27.5036C185.254 28.3283 185.278 29.3797 184.832 30.4596C184.537 31.1967 184.002 31.7643 183.458 32.2807C181.98 33.8032 180.184 35.0113 178.179 35.6224C176.626 36.1024 175.786 37.0396 175.11 38.3176C173.995 40.4106 172.939 42.5459 172.227 44.833C171.783 46.2293 171.22 47.8571 172.458 48.9093C173.507 49.7833 174.939 49.2186 176.278 48.7228C181.421 46.7241 185.408 43.2366 188.655 38.822C189.934 37.0699 191.145 35.2243 192.467 33.4121C192.637 33.1717 192.925 32.6997 193.379 32.8849ZM179.133 32.2909C179.057 32.4623 178.803 32.823 178.889 33.0191C179.045 33.3088 179.676 32.9885 179.923 32.8929C180.638 32.4524 181.438 31.8916 182.016 31.2639C182.381 30.9367 182.738 30.5583 182.923 30.1041C183.008 29.9839 183.117 29.7011 183.142 29.5385C183.133 29.4872 183.133 29.4872 183.124 29.436C183.028 29.1887 182.67 29.2508 182.474 29.3375C181.716 29.8381 180.967 30.39 180.339 31.0266C179.931 31.4139 179.472 31.81 179.133 32.2909Z" fill="currentColor"/>
<path d="M230.777 25.8284C231.586 25.319 232.93 24.2419 233.466 25.2045C234.192 26.3455 232.501 26.6383 231.701 27.199C229.096 28.9167 226.508 30.7368 223.843 32.4121C222.796 33.0685 222.254 33.9011 221.877 35.0747C220.919 37.7737 219.627 40.3721 217.494 42.3775C215.872 43.9778 214.412 44.3888 213.442 43.6598C212.531 42.973 212.686 41.7325 214.048 39.5439C215.411 37.3553 216.954 35.2938 219.047 33.6649C219.421 33.389 219.786 33.0618 220.101 32.7435C220.542 32.2449 220.598 31.6547 220.245 31.1354C219.908 30.7186 219.311 30.9276 218.928 31.1523C217.914 31.6972 217.047 32.4807 216.3 33.3488C213.806 36.3139 211.894 39.6002 210.404 43.1831C210.067 43.9803 209.917 44.6395 210.444 45.5509C211.007 46.6672 210.245 47.7492 208.964 47.971C207.734 48.184 206.919 47.7446 206.646 46.4725C206.435 45.5591 206.609 44.7373 206.946 43.9401C212.028 30.9222 216.14 17.4916 224.076 5.72094C225.254 3.98663 226.422 2.20108 228.107 0.959399C230.634 -0.903117 232.957 0.014061 233.601 3.1218C233.705 3.42036 233.698 3.68542 233.752 3.99284C234.32 8.80229 232.629 13.0532 229.797 16.8155C227.322 20.1994 224.367 23.2444 221.273 26.1021C220.227 27.0748 219.055 28.2277 217.727 26.3468C217.166 25.5467 216.983 26.3173 216.822 26.609C216.467 27.3037 216.215 27.9806 215.972 28.7088C215.653 29.6085 214.703 30.8284 215.313 31.3033C215.974 31.7693 216.692 30.4312 217.45 29.9305C219.681 28.4888 220.407 28.4158 222.368 30.2928C223.254 31.1421 223.651 30.3873 224.025 30.1113C226.274 28.7721 228.478 27.1766 230.777 25.8284ZM219.299 20.7972C219.105 21.2002 218.485 21.888 219.333 22.2161C219.899 22.4348 220.35 23.5177 221.251 22.6229C221.565 22.3046 222.06 22.1134 222.434 21.8375C226.334 19.3679 228.987 15.7948 231.202 11.8226C232.411 9.66069 232.883 7.20417 232.835 5.10143C232.629 3.60667 232.383 2.48832 231.227 2.2135C230.174 1.92094 229.478 2.78022 228.876 3.57052C228.528 4.00016 228.189 4.48104 227.85 4.96191C224.608 10.0091 221.898 15.3864 219.299 20.7972Z" fill="currentColor"/>
<path d="M266.557 20.2661C267.081 20.5449 266.784 20.9657 266.632 21.3086C265.628 23.4351 264.195 25.2138 262.641 26.9077C259.288 30.7075 255.323 33.7161 250.633 35.5837C248.263 36.5219 246.495 35.4559 246.12 32.9877C245.945 32.2792 246.025 31.5264 246.218 30.8071C242.33 35.1744 237.761 38.657 232.278 40.8203C229.506 41.8808 227.446 40.6542 227.052 37.7671C226.746 36.6064 227.063 35.3905 227.491 34.208C229.237 29.0506 231.746 24.3414 235.311 20.241C236.354 18.9521 237.665 17.9864 239.122 17.2591C240.136 16.7141 241.238 16.6815 242.073 17.5397C242.796 18.3643 242.82 19.4157 242.374 20.4957C242.079 21.2327 241.544 21.8004 241 22.3167C239.523 23.8392 237.726 25.0474 235.721 25.6585C234.168 26.1385 233.328 27.0756 232.652 28.3536C231.537 30.4466 230.482 32.582 229.769 34.869C229.325 36.2653 228.763 37.8931 230 38.9454C231.049 39.8193 232.481 39.2546 233.82 38.7589C238.963 36.7601 242.95 33.2727 246.197 28.858C246.756 28.1279 247.298 27.2952 247.849 26.5138C249.214 23.4275 250.941 20.5955 253.181 17.991C254.097 16.8824 255.22 16.0547 256.43 15.423C257.308 15.0071 258.248 14.9498 258.954 15.672C259.599 16.3519 259.605 17.3008 259.235 18.2093C258.974 18.835 258.533 19.3336 258.082 19.781C256.774 21.0631 255.258 22.0643 253.561 22.6222C252.204 23.0154 251.499 23.8235 250.951 24.9212C249.945 26.7314 249.05 28.575 248.439 30.528C248.061 31.7016 247.566 33.1068 248.665 33.9718C249.594 34.761 250.779 34.2919 251.913 33.8316C256.365 32.1109 259.757 29.1486 262.477 25.3528C263.588 23.8412 264.638 22.2872 265.74 20.7244C265.909 20.4839 266.163 20.1233 266.557 20.2661ZM254.389 19.7872C254.304 19.9075 254.101 20.2592 254.179 20.4041C254.275 20.6514 254.863 20.3912 254.999 20.2621C255.681 19.933 256.327 19.3989 256.829 18.9426C257.143 18.6243 257.457 18.306 257.6 17.9119C257.685 17.7916 257.803 17.5601 257.777 17.4064L257.768 17.3551C257.681 17.159 257.365 17.161 257.22 17.2389C256.556 17.6705 255.952 18.1445 255.417 18.7121C255.051 19.0393 254.686 19.3665 254.389 19.7872ZM236.726 22.318C236.599 22.4984 236.345 22.859 236.431 23.0551C236.587 23.3448 237.218 23.0245 237.465 22.9289C238.189 22.5396 238.98 21.9277 239.558 21.3C239.923 20.9728 240.28 20.5944 240.465 20.1401C240.55 20.0199 240.659 19.7371 240.684 19.5745C240.675 19.5233 240.675 19.5233 240.666 19.472C240.571 19.2247 240.212 19.2868 240.016 19.3736C239.258 19.8742 238.561 20.4172 237.881 21.0626C237.473 21.4499 237.014 21.846 236.726 22.318Z" fill="currentColor"/>
<path d="M294.267 15.5207C294.808 15.902 294.367 16.4006 294.113 16.7612C290.42 22.2558 286.298 27.4027 280.971 31.3859C280.554 31.7219 280.171 31.9466 279.728 32.1289C277.468 33.1007 275.331 31.7292 275.478 29.2235C275.615 26.6665 276.593 24.3863 277.844 22.1642C279.45 19.2475 281.167 16.3642 282.773 13.4474C283.212 12.6325 284.06 11.4303 283.432 10.8529C282.564 10.1061 281.485 11.1901 280.643 11.8109C278.49 13.3975 276.733 15.4432 275.088 17.5225C271.28 22.351 268.013 27.5608 264.505 32.6011C263.988 33.2712 263.66 34.1196 262.893 34.569C262.365 34.8716 261.81 35.0204 261.227 34.6992C260.746 34.3603 260.41 33.9435 260.56 33.2843C260.627 33.0616 260.643 32.8478 260.667 32.6852C261.971 28.0264 264.03 23.7646 266.475 19.5944C266.72 19.1825 267.144 18.5814 267.838 18.936C268.473 19.2483 268.58 19.8632 268.412 20.4199C267.91 22.0901 267.287 23.6756 266.776 25.2946C266.666 25.5774 266.515 25.9203 266.858 26.072C267.02 26.0966 267.283 25.7872 267.462 25.598C270.139 21.8623 272.817 18.1267 275.736 14.5604C277.441 12.5236 279.318 10.5626 281.687 9.30805C283.715 8.21809 285.327 8.99442 285.613 10.9503C285.817 12.1288 285.37 13.2088 284.966 14.2286C283.982 16.7739 282.586 19.0738 281.362 21.4496C280.213 23.6539 279.013 25.8671 278.379 28.299C278.262 28.8468 278.052 29.4637 278.593 29.845C279.083 30.2351 279.723 29.9661 280.2 29.6724C283.52 27.5142 286.186 24.625 288.672 21.6086C290.157 19.8211 291.521 17.9488 292.955 16.1701C293.26 15.8006 293.546 15.0123 294.267 15.5207Z" fill="currentColor"/>
<path d="M22.7294 155.337C22.1403 156.811 21.5088 158.345 21.2626 159.971C21.0075 161.546 21.8422 162.404 23.3172 161.779C24.9972 161.119 26.5215 160.169 27.8299 158.886C30.4044 156.383 32.1374 153.285 34.102 150.307C35.1433 148.701 36.1246 147.054 37.166 145.449C37.3778 145.148 37.6409 144.839 38.0952 145.024C38.5583 145.26 38.4066 145.603 38.315 145.988C37.6697 148.053 36.2096 149.678 35.2037 151.488C33.2766 154.988 30.9022 158.038 27.8665 160.622C26.4891 161.81 24.9737 162.811 23.2425 163.481C21.3152 164.236 19.5563 163.222 19.159 161.232C18.8347 159.969 19.212 158.796 19.5804 157.571C20.2995 155.019 21.4039 152.558 22.4571 150.106C22.727 149.532 22.8344 148.933 22.115 148.741C21.5494 148.522 21.5288 149.317 21.3771 149.66C19.6747 153.544 17.7319 157.258 15.0944 160.617C14.1446 161.837 13.117 162.912 11.5818 163.494C9.55208 164.268 8.0001 163.534 7.51611 161.349C7.14747 159.829 7.46266 158.297 7.89807 156.849C9.5166 151.872 12.0614 147.368 15.499 143.448C17.2557 141.402 19.3061 139.833 22.2406 141.542C23.1757 142.066 23.3235 141.09 23.551 140.576C25.017 137.156 26.4228 133.693 27.9399 130.264C28.8837 128.095 30.0502 125.993 31.1054 123.858C31.4265 123.275 31.799 122.682 32.2404 122.184C32.7576 121.514 33.3507 120.672 34.3706 121.076C35.4506 121.522 35.3807 122.643 35.1729 123.576C34.3839 127.248 33.1407 130.736 31.7348 134.198C28.7271 141.21 25.7283 148.273 22.7294 155.337ZM23.9966 143.454C23.9385 143.728 23.7209 145.824 24.4274 145.332C24.521 145.263 24.6057 145.143 24.6481 145.083C25.2323 144.19 25.5338 143.188 25.9978 142.211C26.6648 140.881 27.2805 139.561 27.8962 138.24C29.1277 135.6 30.3503 132.908 31.4616 130.182C32.16 128.425 32.8073 126.677 33.3944 124.887C33.4949 124.552 33.6377 124.158 33.7471 123.876C33.5401 123.595 33.4268 123.245 33.1125 123.563C32.8829 123.761 32.7135 124.002 32.5952 124.233C29.6179 129.287 27.3865 134.687 25.2665 140.121C24.8202 141.201 24.2715 142.298 23.9966 143.454ZM21.23 146.678C21.4152 146.223 21.498 145.787 21.5985 145.453C21.3412 143.967 20.2099 143.529 19.0443 144.417C18.6699 144.693 18.2443 144.978 17.9901 145.339C14.8087 149.214 12.1594 153.42 10.5054 158.192C10.2621 158.92 10.1301 159.682 10.0494 160.435C9.93714 161.615 10.5382 162.039 11.561 161.545C13.2143 160.731 14.4026 159.364 15.4617 157.862C17.9278 154.427 19.5789 150.552 21.23 146.678Z" fill="currentColor"/>
<path d="M75.9101 101.956C76.9438 101.83 77.605 102.296 77.2365 103.521C77.0267 104.138 76.7657 104.763 76.5558 105.38C71.1504 119.879 64.8186 133.905 58.3844 147.949C57.6928 149.441 57.0525 150.924 56.5235 152.44C56.3806 152.834 56.1442 153.298 56.1639 153.716C56.2172 154.024 56.4152 154.253 56.6557 154.423C56.9473 154.583 57.3572 154.512 57.5396 154.956C57.6529 155.306 57.6815 155.776 57.5298 156.118C57.4539 156.29 57.3781 156.461 57.1909 156.599C56.8588 156.815 56.4312 156.784 56.0548 156.743C55.4646 156.687 54.9078 156.52 54.4269 156.181C53.9283 155.739 53.6504 155.049 53.5262 154.331C53.4818 154.075 53.4798 153.759 53.4867 153.494C53.3545 151.511 54.1555 149.737 54.9653 148.013C55.6815 146.359 56.3977 144.704 57.1228 143.101C54.2351 147.454 51.1493 151.577 46.9638 154.834C44.4119 156.86 41.4993 158.63 38.3512 159.651C36.5934 160.166 34.8138 159.946 33.8796 158.208C33.577 157.68 33.4282 157.125 33.373 156.502C33.2665 155.887 33.3561 155.185 33.4546 154.535C33.9087 151.976 35.0465 149.404 36.2376 147.14C37.411 144.773 38.8159 142.524 40.4101 140.454C41.614 138.873 42.9895 137.368 44.6674 136.392C45.2468 136.08 45.8262 135.769 46.5011 135.705C47.1761 135.641 47.8865 135.782 48.3339 136.232C48.9015 136.767 49.1036 137.629 48.9627 138.34C48.8308 139.101 48.4249 139.805 47.95 140.415C47.0849 141.514 46.0307 142.436 44.7783 143.128C43.3812 143.897 41.8194 144.326 40.5691 145.334C38.9778 146.507 38.101 148.453 37.3513 150.219C36.778 151.479 36.3583 152.713 36.0076 154.04C35.6392 155.265 35.1525 156.721 36.27 157.689C37.1382 158.436 38.359 158.172 39.3059 157.849C40.4577 157.491 41.583 156.98 42.6481 156.426C45.068 155.163 47.1854 153.371 49.0623 151.41C50.5402 149.888 51.889 148.229 53.1777 146.528C54.6182 144.485 55.9896 142.347 57.3098 140.219C58.5364 138.159 59.7807 136.202 61.0674 134.185C62.7698 130.302 64.5234 126.41 66.2258 122.526C68.5863 117.262 70.8955 112.007 73.2048 106.752C73.7111 105.715 73.785 105.227 72.3415 105.424C71.6242 105.548 71.2615 104.978 71.7788 104.308C72.8221 103.019 74.2705 102.24 75.9101 101.956ZM43.0045 141.113C42.9287 141.284 42.6745 141.645 42.7612 141.841C42.9169 142.131 43.5475 141.81 43.7948 141.715C44.519 141.325 45.3102 140.714 45.8876 140.086C46.2531 139.759 46.5586 139.389 46.795 138.926C46.8285 138.815 46.9891 138.523 47.0137 138.36C47.0048 138.309 47.0048 138.309 46.996 138.258C46.8491 138.019 46.4905 138.082 46.3456 138.159C45.5879 138.66 44.8391 139.212 44.2105 139.848C43.8026 140.236 43.3435 140.632 43.0045 141.113Z" fill="currentColor"/>
<path d="M106.504 125.42C107.472 125.833 105.689 127.725 105.359 128.257C104.266 129.871 103.165 131.434 102.072 133.048C98.6494 137.969 95.338 142.922 91.9754 147.885C91.1281 149.087 90.2118 150.195 88.8994 150.845C87.5535 151.606 86.4735 151.159 86.1137 149.691C85.8426 148.735 85.7943 147.847 86.0957 146.845C86.7636 144.301 88.3753 139.589 89.9663 135.672C85.039 141.961 78.1324 150.229 73.33 153.277C72.8532 153.571 72.3763 153.864 71.8304 154.064C71.2422 154.325 70.5761 154.44 69.4154 154.746C66.7776 155.362 64.8432 153.638 65.2844 150.395C65.8487 146.34 67.6555 142.755 69.9768 139.398C70.5275 138.616 71.2832 137.799 72.3563 138.511C73.4117 139.119 72.6737 140.039 72.3792 140.776C71.7812 142.199 71.0028 143.495 70.4049 144.917C69.6886 146.572 68.9813 148.278 68.4878 149.999C67.7598 152.5 68.5767 153.256 71.0765 152.453C73.3713 151.687 75.2857 150.247 77.0711 148.671C80.557 145.64 88.8419 134.97 91.64 131.319C91.9366 130.898 92.2243 130.426 92.5721 129.997C92.6568 129.876 92.6903 129.765 92.7839 129.696C93.3859 128.906 94.0904 128.098 95.1457 128.706C96.141 129.273 95.7883 130.284 95.4937 131.021C94.3933 134.114 91.2222 142.315 90.0015 145.324C89.7917 145.941 89.5306 146.566 89.3297 147.235C89.2115 147.466 89.1711 147.842 89.5051 147.943C89.6677 147.968 89.8973 147.77 89.982 147.649C91.3841 146.298 92.6147 144.871 93.7674 143.3C94.2334 142.638 94.6994 141.977 95.1566 141.265C98.3832 136.431 101.309 131.386 104.578 126.493C104.748 126.252 104.96 125.952 105.18 125.702C105.555 125.426 106.101 125.226 106.504 125.42ZM77.2754 128.212C76.5492 128.285 75.9392 127.81 75.9174 127.075C75.8425 126.033 76.3932 125.251 77.4692 125.065C78.3403 124.914 78.6517 125.494 78.8271 126.202C78.7395 127.22 78.5228 128.102 77.2754 128.212Z" fill="currentColor"/>
<path d="M141.692 118.852C142.911 118.272 144.086 118.965 144.215 120.315C144.167 120.957 143.899 121.848 143.136 121.399C141.72 120.536 141.051 121.549 140.217 122.221C136.97 125.106 134.281 128.474 132.013 132.139C129.897 135.46 127.943 138.807 125.896 142.222C125.405 143.046 125.001 144.066 123.741 143.492C122.652 142.995 122.791 141.968 123.101 141.017C123.856 138.67 125.888 134.255 127.787 130.284C123.712 134.79 114.442 145.261 108.959 147.424C106.187 148.485 104.128 147.258 103.733 144.371C103.427 143.21 103.744 141.994 104.173 140.812C105.918 135.654 108.427 130.945 111.992 126.845C113.036 125.556 114.346 124.59 115.803 123.863C116.817 123.318 117.92 123.285 118.754 124.143C119.478 124.968 119.501 126.02 119.055 127.1C118.761 127.837 118.226 128.404 117.682 128.921C116.204 130.443 114.408 131.651 112.402 132.262C110.85 132.742 110.009 133.679 109.333 134.957C108.218 137.05 107.163 139.186 106.451 141.473C106.006 142.869 105.444 144.497 106.682 145.549C107.73 146.423 109.163 145.858 110.502 145.363C115.644 143.364 124.553 132.639 127.799 128.224C128.825 126.833 129.799 125.45 130.774 124.068C130.807 123.956 130.841 123.845 130.883 123.785C131.077 123.382 131.434 123.003 131.739 122.634C131.782 122.574 131.875 122.505 131.969 122.436C131.96 122.385 132.011 122.376 132.062 122.367C132.292 122.169 132.599 122.115 132.951 122.318C133.655 122.724 133.574 123.477 133.364 124.094C133.23 124.539 129.911 130.972 129.94 131.442C130.052 133.006 131.759 129.755 131.886 129.575C133.884 126.484 136.14 123.666 138.697 121.06C139.546 120.174 140.515 119.373 141.692 118.852ZM113.356 128.931C113.28 129.102 113.026 129.463 113.113 129.659C113.268 129.949 113.899 129.628 114.146 129.533C114.871 129.143 115.662 128.531 116.239 127.904C116.605 127.577 116.961 127.198 117.147 126.744C117.231 126.624 117.341 126.341 117.365 126.178C117.356 126.127 117.356 126.127 117.347 126.076C117.252 125.829 116.893 125.891 116.697 125.977C115.939 126.478 115.242 127.021 114.562 127.666C114.154 128.054 113.695 128.45 113.356 128.931Z" fill="currentColor"/>
<path d="M199.695 117.147C200.236 117.528 199.743 118.036 199.54 118.387C195.848 123.882 191.725 129.029 186.348 133.021C185.982 133.348 185.599 133.573 185.155 133.755C182.845 134.736 180.759 133.355 180.905 130.85C181.043 128.293 182.02 126.012 183.22 123.799C184.877 120.874 186.595 117.99 188.201 115.074C188.64 114.259 189.487 113.056 188.86 112.479C187.94 111.741 186.913 112.816 186.07 113.437C183.917 115.024 182.16 117.069 180.515 119.149C176.707 123.977 173.44 129.187 169.933 134.227C169.415 134.897 169.087 135.746 168.321 136.195C167.793 136.498 167.238 136.647 166.655 136.325C166.174 135.986 165.838 135.57 165.979 134.859C166.054 134.688 166.019 134.483 166.095 134.311C166.948 131.314 169.043 126.043 171.118 121.567C166.191 127.856 159.293 136.175 154.439 139.232C153.963 139.526 153.486 139.819 152.94 140.02C152.343 140.228 151.685 140.395 150.525 140.702C147.878 141.265 145.953 139.593 146.394 136.351C146.958 132.295 148.756 128.659 151.086 125.353C151.637 124.571 152.393 123.754 153.457 124.415C154.521 125.075 153.783 125.994 153.489 126.731C152.891 128.154 152.112 129.45 151.514 130.873C150.798 132.527 150.091 134.233 149.597 135.954C148.869 138.455 149.686 139.211 152.186 138.409C154.481 137.642 156.395 136.202 158.18 134.626C161.666 131.595 169.951 120.925 172.698 117.283C173.088 116.793 173.376 116.321 173.775 115.883C173.953 115.693 174.105 115.351 174.344 115.204C174.589 114.792 174.979 114.302 175.622 114.666C176.248 114.927 176.355 115.542 176.187 116.098C175.685 117.769 172.715 125.302 172.152 126.93C172.094 127.204 171.942 127.546 172.285 127.698C172.448 127.723 172.711 127.413 172.889 127.224C175.567 123.488 178.194 119.762 181.163 116.187C182.869 114.15 184.746 112.189 187.114 110.934C189.142 109.844 190.754 110.621 191.04 112.576C191.244 113.755 190.798 114.835 190.343 115.864C189.41 118.4 188.014 120.7 186.789 123.076C185.64 125.28 184.44 127.493 183.806 129.925C183.639 130.482 183.48 131.09 184.021 131.471C184.511 131.861 185.15 131.592 185.627 131.299C188.948 129.14 191.614 126.251 194.1 123.235C195.584 121.447 196.898 119.584 198.382 117.796C198.688 117.427 198.973 116.638 199.695 117.147ZM158.385 114.167C157.659 114.24 157.049 113.766 157.027 113.03C156.952 111.988 157.503 111.207 158.579 111.02C159.45 110.869 159.761 111.449 159.937 112.157C159.849 113.175 159.581 114.066 158.385 114.167Z" fill="currentColor"/>
<path d="M223.654 112.681C223.974 113.312 223.412 113.726 222.944 114.071C219.786 116.254 217.033 118.947 214.521 121.81C212.526 124.002 210.54 126.246 208.596 128.43C207.798 129.307 207.351 130.387 206.956 131.458C205.006 136.651 203.055 141.844 201.044 146.994C200.254 149.136 199.242 151.212 197.826 153.093C197.046 154.072 196.187 154.907 195.098 155.623C193.573 156.573 192.01 156.686 190.525 155.729C188.868 154.697 188.575 153.006 188.897 151.209C189.427 148.478 191.115 146.339 192.691 144.166C196.15 139.451 200.029 135.032 204.054 130.852C206.883 127.987 207.525 124.076 209.385 120.799C209.461 120.627 209.417 120.371 209.348 120.278C208.978 119.972 208.844 120.418 208.769 120.589C207.005 122.9 205.353 125.244 203.391 127.325C202.007 128.779 200.571 130.241 198.851 131.278C196.014 132.877 193.964 131.702 193.823 128.454C193.78 126.984 194.07 125.615 194.686 124.294C197.352 118.661 200.937 113.765 205.674 109.726C207.111 108.58 208.627 107.579 210.48 107.31C212.837 106.902 214.449 107.679 214.862 109.454C214.968 110.069 214.964 110.65 214.444 111.004C213.831 111.427 213.333 110.986 213.082 110.449C212.621 109.314 211.862 109.499 210.984 109.915C209.901 110.366 208.887 110.911 208.02 111.694C203.48 115.647 199.91 120.329 197.371 125.782C196.798 127.042 195.723 128.759 196.994 129.7C198.067 130.411 199.383 128.864 200.292 128.02C204.304 124.37 207.397 119.982 210.498 115.645C211.1 114.855 211.651 114.074 212.202 113.292C212.532 112.76 213.051 112.406 213.635 112.728C214.32 113.031 214.162 113.639 213.943 114.205C213.548 115.276 213.204 116.338 212.758 117.418C212.193 118.729 211.578 120.05 211.064 121.353C210.879 121.807 210.199 122.452 210.954 122.849C211.306 123.052 211.67 122.409 211.975 122.039C214.309 119.366 216.712 116.786 219.425 114.469C220.207 113.806 221.049 113.185 221.892 112.564C222.505 112.142 223.204 111.915 223.654 112.681ZM203.109 135.449C203.218 135.166 203.336 134.934 203.138 134.705C202.811 134.339 202.677 134.785 202.541 134.914C200.087 137.502 197.771 140.278 195.626 143.13C194.549 144.53 193.532 145.973 192.524 147.467C191.813 148.54 190.888 149.597 190.519 150.822C190.41 151.105 190.352 151.379 190.345 151.644C190.342 152.542 190.682 153.591 191.437 153.988C192.089 154.403 192.882 154.107 193.453 153.744C194.884 152.863 195.867 151.532 196.679 150.125C199.248 145.458 201.003 140.352 203.109 135.449Z" fill="currentColor"/>
<path d="M263.62 105.972C264.17 106.404 263.72 106.852 263.466 107.213C259.14 112.711 254.746 118.116 248.829 122.043C247.595 122.838 246.189 123.556 244.872 123.573C239.595 124.487 236.454 121.284 237.826 116.402C239.532 110.407 243.144 105.665 248.414 102.272C249.836 101.34 251.493 101.159 253.126 101.14C255.024 101.128 256.582 102.811 256.482 104.675C256.28 107.771 254.825 110.345 252.659 112.461C252.251 112.849 251.654 113.058 251.159 113.249C250.357 113.493 249.638 113.301 249.18 112.483C248.73 111.717 248.811 110.964 249.448 110.379C250.035 109.802 250.81 109.404 251.516 108.912C252.657 108.187 253.781 107.359 254.303 106.108C254.658 105.413 255.251 104.571 254.425 103.765C253.71 102.991 252.828 102.774 251.83 103.106C250.832 103.437 249.921 103.964 249.087 104.636C245.363 107.814 242.591 111.619 240.739 116.161C240.496 116.89 240.304 117.609 240.334 118.395C240.246 120.627 241.555 122.089 243.793 121.913C245.101 121.844 246.382 121.623 247.643 120.982C250.591 119.416 253.092 117.4 255.196 114.925C257.606 112.08 260.326 109.498 262.486 106.432C262.749 106.123 263.07 105.539 263.62 105.972Z" fill="currentColor"/>
<path d="M286.226 102.163C286.698 102.451 286.582 102.999 286.345 103.462C285.906 104.277 285.484 105.194 284.874 105.933C282.406 109.052 279.955 112.273 277.127 115.138C275.419 116.858 273.496 118.247 271.448 118.918C269.356 119.333 268.361 118.767 267.904 116.735C267.613 115.36 267.297 115.362 266.396 116.257C265.453 117.212 264.39 118.082 263.378 118.943C262.502 119.676 261.488 120.221 260.379 120.518C258.766 120.956 257.582 120.211 257.093 118.607C256.768 117.344 256.872 116.112 257.352 114.921C260.121 108.056 264.686 102.726 270.893 98.6437C271.131 98.4968 271.448 98.4948 271.686 98.348C273.903 97.4364 275.598 97.7762 276.497 99.3093C277.413 100.945 276.926 103.615 275.506 104.864C275.056 105.311 274.63 105.596 273.995 105.284C273.421 105.014 273.118 104.486 273.123 103.904C273.168 102.947 273.325 102.022 273.37 101.064C273.415 100.107 272.832 99.7855 272.074 100.286C270.985 101.003 269.844 101.728 268.892 102.632C265.323 106.099 262.656 110.202 260.744 114.703C260.449 115.44 260.257 116.159 260.125 116.921C259.976 117.58 260.541 117.799 260.985 117.616C261.778 117.321 262.544 116.871 263.26 116.431C266.299 114.48 268.763 111.942 270.916 109.142C271.315 108.703 271.603 108.231 271.942 107.75C272.247 107.381 272.586 106.9 273.11 107.179C273.744 107.491 273.646 108.141 273.427 108.707C273.217 109.324 272.836 109.865 272.524 110.499C271.79 112.051 271.107 113.594 270.382 115.198C270.154 115.712 269.996 116.32 270.443 116.77C270.959 117.314 271.461 116.858 272.007 116.658C274.727 115.606 276.586 113.543 278.325 111.394C280.633 108.567 283.199 106.012 284.956 102.752C285.193 102.289 285.547 101.595 286.226 102.163Z" fill="currentColor"/>
<path d="M299.139 91.5888C300.358 91.0083 301.534 91.7019 301.662 93.0518C301.666 93.6844 301.347 94.5841 300.583 94.1358C299.167 93.2728 298.498 94.2858 297.664 94.9578C294.417 97.8422 291.779 101.201 289.46 104.875C287.335 108.146 285.39 111.543 283.343 114.959C282.852 115.782 282.44 116.751 281.239 116.22C280.099 115.731 280.238 114.705 280.548 113.754C281.823 109.839 283.432 106.024 285.221 102.337C285.415 101.934 285.712 101.513 286.026 101.195C286.383 100.817 286.757 100.541 287.289 100.871C287.941 101.286 287.861 102.038 287.702 102.646C287.568 103.092 287.358 103.709 287.387 104.179C287.499 105.742 289.206 102.492 289.333 102.311C291.331 99.221 293.587 96.4027 296.144 93.7962C296.993 92.9103 297.963 92.1092 299.139 91.5888Z" fill="currentColor"/>
<path d="M318.846 96.0396C319.503 95.8731 320.479 96.0208 320.048 96.8869C319.669 97.7442 318.355 98.0774 317.648 98.5691C314.814 100.485 311.919 102.358 309.015 104.18C308.113 104.759 307.747 105.086 308.243 106.425C310.388 111.806 308.314 115.068 302.362 116.046C301.952 116.117 301.585 116.127 301.226 116.19C299.544 116.534 298.096 116.098 297.206 114.616C296.256 113.092 297.12 111.676 298.121 110.447C299.452 108.686 301.299 107.469 303.086 106.21C304.771 104.968 304.865 104.899 303.708 103.094C301.921 100.395 301.99 97.7447 303.691 95.0752C305.959 91.4105 308.951 88.5705 313.062 87.0143C315.091 86.2406 317.136 86.4671 317.895 87.4967C318.843 88.7047 318.487 90.6133 316.9 92.4186C314.626 95.1344 311.558 96.6157 308.36 97.9609C307.772 98.2211 307.133 98.4902 306.527 98.6479C305.221 99.0323 305.08 99.7427 305.583 100.817C305.816 101.251 305.896 101.712 306.079 102.156C306.539 103.29 307.062 103.569 308.237 102.732C310.969 100.834 313.77 99.0296 316.589 97.3277C317.304 96.8872 317.984 96.2417 318.846 96.0396ZM306.767 96.0731C306.649 96.3047 306.642 96.5698 306.575 96.7924C306.78 96.757 306.994 96.7727 307.138 96.6949C309.993 95.1979 312.985 93.8881 315.192 91.395C315.634 90.8964 316.075 90.3978 316.096 89.6026C315.68 88.7247 314.964 89.1652 314.419 89.3652C311.179 90.7706 308.74 93.1455 306.767 96.0731ZM306.669 111.658C307.696 110.583 307.406 107.995 306.075 107.012C305.035 106.189 304.462 107.449 303.756 107.941C302.777 108.691 301.868 109.534 301.018 110.42C300.254 111.186 299.242 112.047 299.745 113.121C300.256 114.246 301.577 113.648 302.569 113.582C304.175 113.41 305.547 112.803 306.669 111.658Z" fill="currentColor"/>
<path d="M22.0506 232.683C22.7078 232.516 23.6833 232.664 23.2528 233.53C22.8735 234.387 21.559 234.72 20.8526 235.212C18.0179 237.128 15.1231 239.001 12.2194 240.823C11.3169 241.402 10.9513 241.729 11.4471 243.068C13.5926 248.449 11.5187 251.711 5.56627 252.689C5.15637 252.76 4.78883 252.77 4.43017 252.833C2.7482 253.177 1.30069 252.741 0.410799 251.259C-0.539201 249.735 0.323853 248.319 1.32487 247.09C2.65594 245.329 4.50337 244.112 6.2907 242.853C7.97555 241.611 8.06915 241.542 6.9122 239.737C5.12555 237.038 5.19431 234.388 6.8958 231.718C9.16378 228.054 12.1551 225.213 16.2658 223.657C18.2956 222.884 20.3402 223.11 21.099 224.14C22.047 225.348 21.6915 227.256 20.1042 229.062C17.8302 231.777 14.762 233.259 11.5646 234.604C10.9764 234.864 10.3369 235.133 9.73094 235.291C8.42538 235.675 8.28453 236.386 8.78714 237.46C9.02071 237.894 9.10056 238.355 9.28288 238.799C9.74313 239.933 10.2664 240.212 11.4408 239.375C14.1731 237.477 16.9743 235.673 19.7932 233.971C20.5086 233.53 21.1884 232.885 22.0506 232.683ZM9.97116 232.716C9.85293 232.948 9.84606 233.213 9.77907 233.435C9.98402 233.4 10.1978 233.416 10.3427 233.338C13.1971 231.841 16.1895 230.531 18.3965 228.038C18.8379 227.539 19.2793 227.041 19.2999 226.246C18.884 225.368 18.1687 225.808 17.6229 226.008C14.3831 227.414 11.9446 229.788 9.97116 232.716ZM9.87288 248.301C10.9005 247.226 10.6106 244.638 9.27933 243.655C8.23972 242.832 7.66635 244.092 6.95989 244.584C5.9815 245.334 5.07209 246.177 4.22278 247.063C3.45821 247.829 2.44633 248.69 2.94894 249.764C3.46043 250.889 4.78174 250.291 5.77299 250.225C7.3791 250.053 8.75165 249.446 9.87288 248.301Z" fill="currentColor"/>
<path d="M70.0715 224.842C70.6125 225.224 70.1199 225.731 69.9169 226.083C66.2243 231.577 62.102 236.724 56.7242 240.716C56.3587 241.044 55.9754 241.268 55.532 241.451C53.2215 242.431 51.1354 241.051 51.282 238.545C51.4197 235.988 52.397 233.708 53.597 231.495C55.2541 228.569 56.9714 225.686 58.5772 222.769C59.0166 221.954 59.8639 220.752 59.2362 220.175C58.3168 219.437 57.2892 220.512 56.4468 221.133C54.2939 222.719 52.5372 224.765 50.8918 226.844C47.0838 231.673 43.8168 236.882 40.3094 241.923C39.7921 242.593 39.4641 243.441 38.6975 243.891C38.1694 244.193 37.6146 244.342 37.0313 244.021C36.5504 243.682 36.2144 243.265 36.3552 242.555C36.4311 242.383 36.3956 242.178 36.4715 242.007C37.3245 239.009 39.4199 233.739 41.4947 229.263C36.5675 235.552 29.6697 243.871 24.8161 246.928C24.3393 247.221 23.8624 247.515 23.3165 247.715C22.7194 247.924 22.0622 248.091 20.9015 248.397C18.2549 248.961 16.3293 247.289 16.7705 244.046C17.3348 239.99 19.1328 236.354 21.4629 233.048C22.0136 232.267 22.7693 231.45 23.8335 232.11C24.8978 232.77 24.1598 233.69 23.8653 234.427C23.2673 235.849 22.4889 237.145 21.8909 238.568C21.1747 240.223 20.4674 241.928 19.9739 243.65C19.2459 246.151 20.0628 246.906 22.5626 246.104C24.8574 245.337 26.7718 243.898 28.5571 242.322C32.0431 239.291 40.328 228.621 43.0749 224.979C43.4651 224.489 43.7527 224.017 44.1518 223.578C44.3301 223.389 44.4818 223.046 44.7203 222.899C44.9656 222.487 45.3557 221.998 45.9992 222.361C46.6249 222.622 46.7314 223.237 46.5639 223.794C46.0615 225.464 43.0913 232.997 42.5288 234.625C42.4707 234.899 42.319 235.242 42.6619 235.394C42.8245 235.418 43.0875 235.109 43.2659 234.92C45.9437 231.184 48.5704 227.457 51.54 223.882C53.2454 221.845 55.1224 219.884 57.4911 218.63C59.5188 217.54 61.1309 218.316 61.4168 220.272C61.6209 221.45 61.1746 222.53 60.7195 223.559C59.7865 226.096 58.3905 228.395 57.1659 230.771C56.0171 232.976 54.8172 235.189 54.1828 237.621C54.0153 238.177 53.8567 238.785 54.3977 239.167C54.8875 239.557 55.5269 239.288 56.0038 238.994C59.3243 236.836 61.9904 233.947 64.4762 230.93C65.961 229.143 67.2743 227.279 68.7591 225.492C69.0645 225.122 69.3502 224.334 70.0715 224.842ZM28.7614 221.863C28.0352 221.936 27.4253 221.461 27.4035 220.726C27.3286 219.683 27.8793 218.902 28.9553 218.716C29.8263 218.565 30.1378 219.144 30.3132 219.853C30.2256 220.871 29.9577 221.761 28.7614 221.863Z" fill="currentColor"/>
<path d="M92.0163 220.937C92.5661 221.369 92.1158 221.817 91.8617 222.177C87.5364 227.676 83.1422 233.081 77.2255 237.008C75.9909 237.802 74.5848 238.521 73.2684 238.538C67.9909 239.452 64.8504 236.248 66.2216 231.367C67.9277 225.372 71.5397 220.63 76.81 217.237C78.2318 216.305 79.8892 216.123 81.5219 216.105C83.4197 216.093 84.9776 217.775 84.8783 219.64C84.6755 222.736 83.2214 225.31 81.0547 227.426C80.6468 227.814 80.0497 228.022 79.5551 228.214C78.7531 228.458 78.0337 228.266 77.5755 227.448C77.1261 226.682 77.2068 225.929 77.8443 225.343C78.4305 224.767 79.206 224.369 79.9124 223.877C81.0534 223.152 82.1767 222.324 82.6988 221.073C83.0535 220.378 83.6466 219.536 82.8208 218.729C82.1063 217.956 81.2244 217.739 80.2263 218.07C79.2282 218.402 78.3168 218.929 77.4832 219.601C73.7588 222.779 70.9874 226.584 69.1353 231.126C68.8919 231.854 68.6999 232.574 68.7305 233.36C68.642 235.592 69.9506 237.054 72.1893 236.877C73.4969 236.809 74.7778 236.588 76.039 235.947C78.9871 234.381 81.4877 232.365 83.5922 229.889C86.0022 227.045 88.7215 224.463 90.8821 221.397C91.1452 221.088 91.4664 220.504 92.0163 220.937Z" fill="currentColor"/>
<path d="M110.762 217.691C111.396 218.003 111.006 218.493 110.812 218.896C109.708 221.357 107.96 223.453 106.194 225.448C102.264 229.875 97.6527 233.418 92.1182 235.59C89.3465 236.651 87.287 235.424 86.8838 232.486C86.5861 231.376 86.9033 230.16 87.3318 228.978C89.0775 223.821 91.5868 219.111 95.1514 215.011C96.1948 213.722 97.5053 212.756 98.9625 212.029C99.9764 211.484 101.07 211.4 101.914 212.31C102.637 213.134 102.661 214.186 102.214 215.266C101.92 216.003 101.385 216.57 100.841 217.087C99.3631 218.609 97.5669 219.817 95.5618 220.428C94.0089 220.908 93.1685 221.846 92.4926 223.124C91.3774 225.217 90.3222 227.352 89.61 229.639C89.1657 231.035 88.6032 232.663 89.8409 233.715C90.8894 234.589 92.3221 234.025 93.6611 233.529C98.8035 231.53 102.791 228.043 106.037 223.628C107.317 221.876 108.528 220.03 109.85 218.218C110.02 217.978 110.307 217.506 110.762 217.691ZM96.5153 217.097C96.4395 217.268 96.1853 217.629 96.272 217.825C96.4277 218.115 97.0583 217.794 97.3056 217.699C98.021 217.258 98.821 216.698 99.3984 216.07C99.7639 215.743 100.121 215.364 100.306 214.91C100.391 214.79 100.5 214.507 100.525 214.344C100.516 214.293 100.516 214.293 100.507 214.242C100.411 213.995 100.052 214.057 99.8564 214.144C99.0987 214.644 98.3499 215.196 97.7213 215.833C97.3134 216.22 96.8543 216.616 96.5153 217.097Z" fill="currentColor"/>
<path d="M151.737 189.539C154.275 189.258 155.746 190.745 155.446 193.277C154.917 197.538 152.665 200.989 150 204.194C145.597 209.548 140.351 213.992 135.569 218.989C133.429 221.26 131.316 223.684 129.614 226.353C128.869 227.538 131.429 226.778 131.83 226.656C133.033 226.289 134.364 225.742 134.756 225.569C138.151 224.453 141.718 223.413 145.331 222.946C146.356 222.768 147.381 222.591 148.434 222.883C149.042 223.042 149.514 223.33 149.527 224.013C149.566 224.851 148.936 225.171 148.27 225.287C147.125 225.379 145.987 225.207 144.842 225.3C139.545 225.795 134.536 227.348 129.659 229.354C128.329 229.901 126.967 230.875 125.727 229.507C124.367 228.053 125.547 226.635 126.334 225.391C128.72 221.495 131.863 218.312 135.178 215.205C139.861 210.858 145.051 207.004 149.347 202.249C151.07 200.315 152.673 198.296 153.795 195.938C154.217 195.02 154.425 194.087 154.47 193.129C154.538 191.693 153.868 191.175 152.355 191.279C151.159 191.38 150.163 192.028 149.218 192.667C146.64 194.538 144.56 196.851 142.566 199.36C141.099 201.25 139.572 203.097 137.985 204.903C137.722 205.212 137.272 205.659 136.757 205.432C136.183 205.162 136.016 204.505 136.133 203.957C136.325 203.237 136.568 202.509 136.983 201.857C139.521 197.618 142.806 194.041 146.918 191.27C148.391 190.329 150.038 189.78 151.737 189.539Z" fill="currentColor"/>
<path d="M180.466 192.005C180.182 199.812 177.259 206.704 173.608 213.352C172.256 215.908 170.664 218.295 168.712 220.428C167.777 221.434 166.835 222.389 165.694 223.114C162.211 225.247 159.271 224.12 158.212 220.135C158.098 219.785 158.087 219.417 157.928 218.495C157.764 216.94 157.819 214.82 158.148 212.757C159.2 206.031 161.374 199.691 164.739 193.831C165.475 192.596 166.16 191.369 167.695 190.786C168.292 190.577 168.732 189.763 169.267 189.195C170.488 187.717 171.899 186.417 173.655 185.585C176.238 184.346 178.311 185.043 179.643 187.556C180.413 188.954 180.517 190.466 180.466 192.005ZM167.939 217.184C172.64 211.726 175.841 205.525 177.815 198.639C178.492 196.147 178.681 193.581 178.656 190.999C178.588 189.692 178.135 188.293 176.814 187.677C175.563 187.155 174.62 188.11 173.735 188.791C173.318 189.127 172.928 189.616 172.52 190.004C170.338 192.334 168.928 195.164 167.518 197.994C165.584 201.759 164.944 205.987 162.523 209.678C160.991 212.107 161.269 215.542 161.456 218.148C161.962 221.069 162.759 221.406 164.794 220.051C165.977 219.265 167.022 218.292 167.939 217.184Z" fill="currentColor"/>
<path d="M208.729 179.67C211.266 179.389 212.738 180.876 212.437 183.408C211.908 187.669 209.656 191.12 206.992 194.325C202.589 199.679 197.342 204.124 192.561 209.121C190.421 211.391 188.307 213.815 186.606 216.485C185.861 217.669 188.421 216.909 188.822 216.787C190.025 216.42 191.355 215.873 191.747 215.7C195.143 214.584 198.71 213.544 202.323 213.077C203.348 212.9 204.373 212.722 205.426 213.015C206.034 213.173 206.506 213.461 206.519 214.145C206.558 214.982 205.928 215.303 205.262 215.418C204.117 215.511 202.978 215.338 201.833 215.431C196.536 215.926 191.528 217.479 186.651 219.485C185.32 220.032 183.959 221.007 182.719 219.638C181.359 218.185 182.538 216.767 183.326 215.522C185.712 211.626 188.855 208.443 192.169 205.336C196.852 200.989 202.043 197.135 206.339 192.38C208.062 190.446 209.665 188.427 210.787 186.069C211.209 185.151 211.416 184.218 211.462 183.261C211.53 181.824 210.86 181.307 209.347 181.41C208.151 181.512 207.155 182.159 206.21 182.798C203.631 184.669 201.551 186.982 199.558 189.491C198.091 191.381 196.564 193.229 194.977 195.034C194.714 195.343 194.263 195.791 193.749 195.563C193.175 195.293 193.008 194.636 193.124 194.088C193.316 193.369 193.56 192.641 193.974 191.988C196.512 187.749 199.798 184.172 203.91 181.402C205.383 180.461 207.029 179.912 208.729 179.67Z" fill="currentColor"/>
<path d="M214.934 213.585C213.802 213.147 212.85 212.521 212.773 211.162C212.635 209.761 213.46 209.038 214.645 209.782C219.939 212.929 227.829 210.033 232.251 205.098C234.688 202.406 236.755 199.41 237.21 195.637C237.577 192.882 236.553 191.845 233.829 192.264C231.412 192.63 229.315 193.626 227.281 194.981C225.868 195.965 224.455 196.948 222.955 197.736C222.035 198.212 220.832 198.578 220.149 197.377C219.526 196.219 220.213 195.308 221.166 194.721C222.751 193.813 224.344 192.957 225.92 191.998C230.876 188.923 235.832 185.848 239.771 181.472C240.705 180.466 241.527 179.427 241.929 178.09C242.465 176.309 241.682 175.442 239.811 175.607C238.144 175.738 236.705 176.567 235.248 177.295C231.575 179.25 228.446 181.903 225.386 184.649C224.416 185.45 223.498 186.243 222.529 187.044C222.163 187.371 221.677 187.613 221.214 187.377C220.622 187.005 220.669 186.363 220.785 185.815C220.953 185.258 221.232 184.735 221.579 184.306C225.76 178.885 231.088 175.218 237.781 173.637C239.701 173.146 241.753 173.107 243.054 174.835C244.356 176.562 243.582 178.49 242.67 180.231C241.175 183.182 238.761 185.394 236.416 187.7C235.83 188.276 235.132 188.819 234.495 189.405C234.308 189.543 234.105 189.894 234.14 190.099C234.144 190.732 234.663 190.378 234.989 190.427C238.129 190.886 239.413 192.511 238.972 195.754C238.067 202.719 233.891 207.558 228.376 211.363C226.401 212.76 224.124 213.629 221.68 213.841C219.41 214.446 217.127 214.366 214.934 213.585Z" fill="currentColor"/>
</svg>
