<svg width="652" height="475" viewBox="0 0 652 475" fill="none" xmlns="http://www.w3.org/2000/svg">
<path d="M323.47 473.252C324.222 472.972 325.922 471.652 327.201 470.844C328.734 469.875 329.707 468.906 330.843 467.959C331.792 467.169 332.64 466.165 333.304 464.513C334.737 460.95 333.872 459.355 334.251 458.172C334.685 456.815 335.381 454.73 336.282 453.112C336.987 451.845 337.56 450.843 337.516 449.754C337.465 448.477 334.831 448.006 333.405 447.67C331.555 447.234 328.867 447.62 327.684 447.81C326.179 448.052 325.178 449.039 323.806 449.7C322.256 450.447 321.109 452.251 320.305 453.387C319.467 454.57 319.027 455.655 318.413 456.792C317.835 457.86 317.421 459.06 317.181 460.29C316.867 461.903 316.661 465.092 316.99 467.337C317.319 468.043 317.699 468.804 318.17 469.465C318.454 469.751 318.828 469.938 319.782 470.131M328.294 443.177C328.668 443.177 329.423 443.177 330.414 443.13C331.138 443.096 331.602 442.612 331.979 442.046C332.685 440.988 332.737 439.778 332.74 437.888C332.742 436.267 331.795 435.051 331.463 433.771C331.285 433.086 331.321 432.398 331.179 431.832C330.783 430.252 333.679 428.616 334.862 428.047C336.276 427.367 337.483 426.671 338.68 425.981L338.787 425.919C339.839 425.312 341.243 424.74 342.899 424.028C345.098 423.081 347.099 422.186 348.765 421.615C350.112 421.152 351.458 421.046 352.69 420.717C354.019 420.362 355.243 419.723 356.379 419.109C357.447 418.532 358.46 417.93 359.406 417.265C360.444 416.535 360.543 414.809 360.592 411.036C360.545 410.173 360.452 409.798 360.357 409.325C360.262 408.851 360.168 408.289 360.072 407.426M366.314 417.357C366.407 416.792 366.972 415.66 367.588 414.477C368.424 412.869 369.713 412.159 370.849 411.731C372.021 411.289 373.401 410.928 376.044 410.784C377.97 410.68 379.638 410.264 381.299 409.699C382.63 409.247 383.803 408.187 385.176 406.865C386.855 405.248 388.53 403.937 389.624 402.654C390.45 401.686 391.089 400.623 391.894 399.251C392.646 397.967 393.359 396.934 394.399 395.515C395.441 394.093 396.384 392.775 397.238 391.542C398.121 390.267 399.692 388.802 401.207 387.334C402.548 386.035 404.981 384.365 407.07 382.322C408.581 380.845 410.383 379.059 411.329 378.158C412.219 377.311 412.653 375.938 413.128 374.33C413.513 373.029 413.601 371.682 413.65 368.897C413.32 367.423 412.942 366.291 412.375 364.919C412.278 364.586 412.278 364.305 412.278 364.015M415.683 362.029C415.683 361.465 416.058 360.145 416.344 358.866C416.668 357.42 417.472 355.808 418.181 354.386L418.187 354.373C418.729 353.286 419.553 351.73 420.362 350.307C421.941 347.528 424.944 344.54 425.942 343.307C426.891 342.133 427.691 341.039 428.353 339.809C429.371 337.919 430.528 337.066 431.239 335.93C431.867 334.926 431.76 333.662 432.138 332.29C432.487 331.027 432.611 329.502 432.848 327.566C433.29 323.949 433.842 318.385 432.902 314.84C432.334 312.702 430.159 312.756 428.694 311.953C427.035 311.715 425.716 311.525 424.483 311.243C424.198 311.147 423.917 311.054 423.06 310.39M426.465 307.836C427.217 307.743 428.917 307.178 430.619 306.14C432.151 305.205 433.082 303.867 433.696 303.301C434.179 302.856 434.126 302.071 433.985 301.316C433.663 299.585 432.333 298.479 431.528 297.436C430.75 296.427 429.121 296.016 428.124 295.119C427.06 294.163 425.62 293.372 424.436 292.424C423.73 291.766 423.063 291.193 422.497 290.815C422.212 290.625 421.931 290.438 421.358 289.961M428.167 289.394C428.732 289.487 429.864 289.865 431.707 290.008C432.429 290.064 433.269 290.245 434.12 290.011C434.479 289.912 434.41 289.309 434.316 288.927C433.922 287.32 432.145 285.995 430.915 284.529C429.471 282.808 428.457 281.926 427.603 280.839C426.634 279.606 425.903 278.146 425.285 276.867C424.63 275.512 424.479 274.174 424.197 272.659C423.911 271.124 423.628 268.324 423.345 266.369C423.142 264.959 422.589 263.676 421.975 262.161C421.417 260.785 420.983 259.42 419.99 257.952C419.01 256.502 417.579 255.068 416.21 253.838C414.538 252.336 413.419 251.754 412.518 250.81C411.475 249.718 410.769 248.355 410.67 244.767C410.622 243.052 411.989 242.016 412.843 240.88C413.664 239.788 414.917 238.237 416.293 237.096C417.713 235.919 418.986 234.923 419.748 233.833C420.496 232.763 421.636 231.802 423.008 230.383C424.245 229.104 425.324 228.3 426.932 226.883C427.983 225.957 429.671 224.901 431.236 223.619C432.405 222.661 433.836 222.058 434.973 221.347C436.105 220.639 437.712 220.259 438.898 219.316C439.452 218.875 439.517 217.899 439.376 216.954C439.174 215.595 437.065 215.249 435.127 214.82C432.574 214.256 431.01 214.017 429.827 213.874C427.956 213.647 426.187 211.844 425.051 211.18C424.07 210.607 422.595 211.742 421.175 212.969C418.994 214.853 417.119 217.309 415.357 218.977C414.173 220.098 412.755 219.879 412.094 219.692C409.915 219.075 411.24 214.494 410.861 213.028C410.356 211.072 409.35 209.199 408.357 207.731C407.565 206.56 406.326 205.885 404.954 205.175C403.757 204.555 400.294 204.558 398.096 203.946C396.564 203.52 396.957 201.158 396.721 199.975C396.435 198.536 397.144 196.999 397.57 195.531C397.764 194.861 398.279 194.346 398.703 193.827C400.501 191.626 406.031 193.021 407.401 192.266C410.108 190.775 412.551 188.68 414.117 186.596C415.842 184.3 416.812 183.187 417.713 181.44C418.611 179.7 420.03 178.176 421.164 176.24C422.434 174.07 424.19 173.256 427.162 170.615C428.397 169.517 430.332 169.658 432.033 169.705C433.613 169.749 434.875 171.259 435.779 172.538C436.66 173.786 436.396 176.076 436.067 177.881C435.789 179.405 434.886 180.435 434.082 181.618C432.949 183.284 431.481 184.691 430.535 186.345C430.112 187.084 430.154 188.283 430.388 189.652C430.776 191.923 432.327 192.635 432.33 195.467C432.332 197.586 429.126 199.252 427.604 200.392C427.038 201.051 426.374 201.624 425.62 202.095C425.239 202.378 424.865 202.753 424.195 203.139M436.112 195.478C436.677 195.007 437.621 194.065 438.661 193.117C439.9 191.989 440.743 190.944 441.736 190.043C442.781 189.095 443.954 188.01 445.187 187.3C446.306 186.654 447.456 185.928 448.827 185.313C450.139 184.726 452.086 184.696 453.509 184.367C455.307 183.951 456.722 182.716 458.66 180.874C461.286 178.379 462.022 176.474 462.78 175.291C463.626 173.97 464.292 172.598 465.426 171.365C466.812 169.857 468.452 169.284 469.824 168.244C471.132 167.252 472.14 166.163 473.983 164.416C475.298 163.17 476.022 162.003 476.872 161.102C477.277 160.672 477.441 160.014 477.958 159.495C478.597 158.854 479.52 158.783 480.086 158.688C481.241 158.494 482.355 159.348 483.678 159.773C485.833 160.466 487.365 160.579 488.645 160.156C490.3 159.61 490.208 157.747 490.352 155.858C490.476 154.217 490.872 152.737 491.155 151.504C491.541 149.815 494.079 147.726 495.69 146.726C496.976 145.927 498.244 145.45 499.616 145.211C500.896 144.987 502.216 144.786 504.906 144.83C506.25 144.852 507.042 145.635 507.608 145.589C508.355 145.529 508.55 144.363 508.691 143.518L508.699 143.467C509.013 141.593 507.993 140.44 507.801 139.35C507.757 139.098 508.174 138.924 508.46 138.875C509.625 138.672 510.728 139.957 511.629 141.044C512.747 142.393 513.568 143.175 514.181 143.365C515.599 143.805 516.686 142.046 517.211 140.912C517.93 139.361 517.731 137.512 517.733 130.532C517.735 125.953 517.072 122.19 517.069 117.517C517.068 115.364 518.86 113.774 520.562 112.865C521.758 112.226 523.025 113.573 523.78 113.715C525.527 114.043 526.904 111.873 527.751 111.73C530.66 111.238 532.008 114.138 533.144 114.613C533.422 114.729 533.71 114.802 534.136 114.569C536.308 113.381 536.644 111.499 537.355 110.363C537.999 109.333 537.972 108.094 538.254 106.722C538.511 105.473 539.482 103.469 540.145 101.804C540.699 100.416 541.184 99.0147 541.941 97.6428C542.598 96.4541 542.983 95.3261 543.644 93.9075C544.308 92.486 544.685 91.3539 544.828 90.1707C544.875 89.8388 544.969 89.4644 545.065 89.0786M544.789 84.4713C545.128 84.359 545.919 83.7942 546.658 83.1409C547.343 82.5359 548.076 81.9228 548.728 80.9598C549.662 79.5793 549.607 78.4079 549.779 75.6637C549.858 74.4054 550.4 73.6443 550.715 72.7928C550.95 72.1579 550.688 71.5432 550.518 71.2318C550.142 70.5388 549.104 70.2961 546.077 70.2085C544.784 70.1711 544 70.5751 543.205 70.9162C541.899 71.4762 540.427 71.9362 539.688 72.2492C538.92 72.5745 538.216 73.4095 537.054 74.1751C535.648 75.1014 534.777 75.6826 533.733 76.3792L533.593 76.4727C532.577 77.1509 529.277 78.561 527.269 79.3385C526.419 79.668 523.659 79.5376 521.6 79.3963C520.232 79.3026 519.107 78.8026 518.111 78.2071C517.277 77.7092 516.776 76.8189 516.238 76.0533C515.382 74.8345 515.245 73.304 513.493 68.104C512.562 65.3389 511.9 64.7397 510.401 63.183C509.325 62.0653 508.022 61.3545 507.086 60.8438L507.052 60.825C506.27 60.3982 505.493 60.0305 500.887 57.4879C498.761 56.3145 497.667 56.2298 496.929 56.0605C495.655 55.768 494.098 54.9845 493.101 54.5864C492.382 54.2988 491.318 54.2461 490.127 53.9628C489.001 53.6813 488.082 53.4516 487.601 53.3665C487.345 53.3376 487.064 53.3376 486.775 53.3376M486.095 49.7649C486.039 49.2001 485.925 48.295 485.445 47.0198C484.932 45.6566 484.455 44.1608 484.139 43.0482C483.664 41.375 482.583 39.3938 482.296 38.5389C482.044 37.7917 481.447 36.8418 480.597 34.9985C480.191 34.1179 479.858 33.4358 479.489 32.5852C479.087 31.6548 478.837 30.6015 478.469 29.693C477.994 28.5228 477.476 26.9165 477.108 25.9782C476.839 25.2928 476.529 24.6232 476.197 23.9064L476.172 23.8516C475.597 22.6088 474.927 20.7952 474.357 19.6843C473.633 18.2712 473.393 17.2735 472.855 16.451C472.274 15.5624 471.579 14.3269 470.984 13.5018C470.225 12.4502 469.197 11.319 468.433 10.3833C467.872 9.69748 466.652 8.99504 465.089 8.00148C464.174 7.42019 463.471 7.12021 462.761 6.86501C461.912 6.55957 460.698 6.04499 459.445 5.70218C458.51 5.44646 457.516 4.90852 456.807 4.51212C455.919 4.01609 454.91 3.21063 453.944 2.75383C452.639 2.13708 450.939 1.67606 450.2 1.59015C447.957 1.32948 444.076 1.67266 443.085 2.12691C441.581 2.81631 440.674 2.58115 435.389 3.62745C432.873 4.12571 430.922 4.56486 429.843 4.79284C428.302 5.11856 427.294 5.9259 425.958 6.49328C425.116 6.85087 424.341 7.34478 423.349 8.19287C422.475 8.9404 421.677 9.49862 420.825 10.1783C419.564 11.1852 418.897 11.8804 417.989 13.4924C417.787 13.8509 417.76 14.0343 417.816 14.1772C417.871 14.3201 418.039 14.4324 418.239 14.4341C419.216 14.4424 420.193 13.9254 421.215 13.6983C421.618 13.6086 422.291 13.5273 423.141 13.6115C424.194 13.7159 424.732 14.7148 425.3 15.255C426.435 16.3358 425.079 19.7574 424.651 20.6702C424.3 21.4167 423.831 22.4251 423.432 23.2502C422.996 24.1505 421.064 26.4367 419.605 28.155C418.859 29.0341 418.216 29.6318 417.225 30.536C416.676 31.0364 415.445 32.4015 413.773 34.1011C412.119 35.7816 411.806 37.8524 411.551 38.5338C411.261 39.3061 411.068 40.0641 410.814 41.0551C410.399 42.6758 410.105 43.2966 409.906 44.4015C409.749 45.2721 409.707 48.2099 409.876 49.9325C409.876 49.9352 409.876 49.9379 409.877 49.9406M409.877 49.9406C409.896 50.1166 409.989 50.2715 410.018 50.2463C410.042 50.2248 410.046 50.0607 409.877 49.9406ZM409.877 49.9406C409.846 49.9188 409.809 49.8984 409.766 49.8806C407.813 49.0756 405.518 51.5172 404.268 52.5108C401.853 54.4315 400.581 54.9232 399.842 55.2643C399.036 55.6358 398.481 56.2842 397.8 56.5131C397.031 56.7714 395.763 56.0052 394.88 55.6361C393.623 55.1105 392.867 53.7935 392.158 53.3112C391.184 52.6496 390.053 52.2123 389.176 51.8732L389.152 51.8643C388.952 51.8064 388.784 51.8064 388.613 51.7784C388.442 51.7503 388.274 51.6941 387.93 51.9766M386.739 55.8895C386.513 56.1141 386.174 57.0192 385.72 58.3233C385.427 59.1646 385.096 60.0237 384.586 60.962C384.221 61.6345 384.075 62.3511 383.763 63.1728C383.219 64.6104 382.884 65.2433 382.516 65.9246C382.169 66.565 382.033 67.2848 381.778 67.9943C381.473 68.8434 381.07 69.7211 380.785 70.5181C380.519 71.2621 380.162 72.0485 379.68 73.0122C379.314 73.7457 379.141 74.7127 378.942 75.9308C378.783 76.9051 378.969 77.6644 379.11 78.0319C379.278 78.4681 379.648 78.9115 380.465 79.2517C382.958 80.2892 383.956 78.9727 384.836 78.3773C385.548 77.896 386.225 77.5538 388.319 77.5521C389.347 77.5513 389.856 78.3432 390.846 78.8553C391.987 79.4455 392.973 79.4797 394.7 79.5095C395.62 79.5253 396.263 78.578 396.972 77.98C397.742 77.3309 398.417 76.6488 399.24 75.9393C400.273 75.0491 402.207 75.1142 403.437 75.3115C404.328 75.4545 405.164 76.2439 406.102 76.6726C406.926 77.0487 408.335 78.282 409.589 79.364L409.619 79.3901C410.643 80.2732 411.242 80.7906 412.057 81.5757C412.887 82.376 413.446 83.277 414.07 84.4092C414.969 86.0397 415.263 86.6796 415.772 88.2644C416.114 89.5157 416.342 90.8154 416.37 92.0616C416.398 92.578 416.454 92.8587 416.512 93.1479M473.55 256.991C473.55 256.383 473.723 254.99 474.073 253.635C474.367 252.495 475.033 251.497 475.6 250.448C476.171 249.391 476.342 248.092 476.692 247C477.216 245.363 477.128 243.379 477.26 241.895C477.385 240.487 477.651 238.927 478.001 237.792C478.475 236.252 478.526 232.234 478.222 229.543C478.079 228.277 476.871 227.232 476.215 225.834C475.65 224.629 476.342 223.477 476.864 222.342C477.693 220.542 478.526 219.638 478.743 217.808C479.166 214.247 478.526 212.484 478.265 210.647L478.263 210.63C478.139 209.755 478.004 208.805 478.305 207.724C479.035 205.097 481.312 204.795 482.45 204.357C483.558 203.93 485.151 203.659 487.03 202.875C488.366 202.317 489.519 201.129 490.568 200.691C490.824 200.584 491.09 200.517 491.353 200.515C492.409 200.51 493.185 201.821 493.756 202.824C494.507 204.144 494.411 205.66 494.76 206.926C495.146 208.323 495.982 209.85 496.418 211.332C497.092 213.623 498.422 214.39 499.254 215.393L499.296 215.444C500.264 216.611 500.967 217.459 501.611 218.536C502.45 219.939 503.052 221.283 503.576 224.37C504.71 231.054 503.403 232.543 503.186 233.767C502.925 235.236 502.707 236.471 502.574 238.956C502.487 240.603 502.094 243.18 501.964 246.017C501.921 246.961 501.575 246.867 501.312 246.736C499.546 245.857 496.6 246.6 495.334 247.125C494.041 247.661 493.196 248.695 492.147 249.351C491.094 250.009 489.53 248.878 488.394 248.394C488.07 248.255 487.613 248.349 487.217 248.522C485.268 249.374 484.119 251.921 483.025 253.059C482.013 254.11 480.715 255.76 479.577 256.813C478.529 257.863 477.743 258.124 477.177 258.299C476.871 258.386 476.525 258.473 475.645 258.562M598.55 162.532C598.955 162.194 599.768 161.786 601.293 161.008C604.456 159.392 606.627 159.137 607.886 158.933C608.762 158.792 607.247 157.238 606.5 156.591C605.68 155.881 604.467 154.797 603.443 153.537C602.498 152.372 602.083 151.329 601.811 150.141C601.679 149.563 601.674 148.951 601.876 148.408C602.195 147.553 605.926 147.86 607.92 148.232C608.777 148.392 609.684 148.81 610.908 148.677C612.026 148.555 613.014 147.522 614.134 147.554C615.148 147.582 618.153 149.951 620.519 151.423C621.514 152.043 622.387 152.478 623.575 153.088C624.631 153.497 625.713 154.173 626.87 154.618C627.143 154.719 627.412 154.854 627.893 154.992M596.308 159.679C596.308 158.263 596.039 155.812 595.698 154.996C595.357 154.18 594.817 153.366 594.137 152.381C593.616 151.627 593.659 150.045 594.098 148.882C594.515 147.779 595.827 147.049 596.882 146.064C598.039 144.983 599.226 143.585 599.939 142.262C600.439 141.335 600.722 140.26 600.858 138.967C600.888 138.686 601.06 138.491 601.264 138.353C602.138 137.763 603.367 138.348 604.624 138.69C604.932 138.758 605.201 138.825 605.81 138.86C606.419 138.894 607.361 138.894 608.331 138.894M610.369 134.208C610.436 133.6 610.707 132.243 611.317 130.85C611.736 129.894 611.93 128.913 612.235 127.997C612.765 126.408 613.152 124.773 613.458 123.785C613.826 122.594 613.967 121.374 614.206 119.48C614.792 114.819 614.444 113.565 614.647 112.611C614.83 111.746 615.394 110.981 615.902 110.233C616.531 109.306 618.784 111.108 619.841 112.162C620.499 112.819 620.488 114.095 620.794 115.219C621.045 116.144 621.507 117.017 622.117 118.105C622.712 119.166 623.475 120.143 624.56 121.264C625.297 122.025 626.259 122.25 627.311 122.997C628.459 123.811 629.988 124.557 631.151 125.07C632.358 125.604 634.336 126.529 639.489 126.634C641.279 126.671 642.492 126.33 643.715 126.328C643.997 126.327 644.191 126.529 644.329 126.733C644.919 127.608 644.872 128.702 645.077 133.408C645.121 134.411 645.279 134.611 645.483 134.816C646.337 135.674 647.248 136.107 648.064 136.482C648.99 136.907 649.695 137.399 650.034 137.703C650.35 137.987 650.308 138.888 650.207 139.872C650.099 140.928 647.875 141.47 645.967 141.781C645.42 141.87 642.053 141.951 637.063 142.052C634.81 142.097 634.145 142.697 633.637 143.001C632.646 143.595 632.177 144.8 631.665 145.683C630.965 146.891 630.343 147.653 629.898 148.705C629.662 149.348 629.389 149.896 629.151 150.336C629.049 150.575 628.981 150.844 628.708 151.325M545.04 271.791C545.12 271.393 545.519 270.431 545.782 269.867C546.08 269.225 546.641 268.264 547.125 267.66C547.827 266.784 548.488 265.139 548.671 264.13C548.774 263.567 548.851 263.006 548.912 262.025C548.978 260.961 548.854 259.436 548.632 258.913C548.38 258.318 547.691 257.989 546.909 257.748C546.384 257.587 545.806 257.587 544.785 257.487C543.616 257.373 542.675 257.546 542.314 257.726C541.715 258.025 541.552 258.788 541.289 259.47C541.177 259.763 540.988 260.152 540.789 260.653C540.446 261.511 539.385 261.439 538.644 261.579C537.615 261.772 536.578 261.879 535.315 261.94C534.682 261.971 534.13 262.279 533.307 262.622C532.765 262.847 532.045 263.48 531.48 264.185C531.131 264.619 530.998 265.166 530.798 265.985L530.797 265.989C530.625 266.694 530.475 268.447 530.495 270.593C530.508 271.997 530.716 272.631 531.055 273.492C531.424 274.428 531.876 275.157 532.419 275.781C532.978 276.425 533.363 276.806 533.682 276.926C533.874 276.998 534.161 276.967 534.344 276.888C534.96 276.62 535.088 275.886 535.369 275.404C535.64 274.942 535.81 274.162 536.231 273.499C536.575 272.957 537.132 272.236 537.616 271.653C538.15 271.008 538.778 270.669 539.56 270.368C539.862 270.267 540.104 270.186 540.403 270.126C540.584 270.106 540.822 270.106 541.068 270.106M515.91 262.402C516.471 263.563 516.791 264.205 517.232 264.807C517.722 265.475 518.394 266.011 519.216 266.533C520.48 267.335 521.524 268.136 522.227 268.859C522.696 269.341 523.368 270.101 523.973 270.826C524.459 271.408 524.721 271.996 525.178 273.023L525.217 273.111C525.57 273.903 525.74 274.998 525.8 275.84C525.89 277.081 525.742 278.85 525.221 280.372C524.854 281.442 524.136 282.502 523.856 283.084C523.597 283.621 523.055 284.464 522.732 285.29C522.334 286.308 521.69 287.396 521.428 288.239C521.199 288.973 520.927 289.763 520.786 290.366C520.607 291.129 520.405 291.65 518.805 296.049C518.272 297.516 517.838 298.109 517.356 298.533C516.894 298.938 516.314 299.075 515.572 299.216C514.447 299.429 513.866 299.036 513.304 298.936C512.702 298.828 512.501 297.914 512.279 297.293C512.002 296.515 511.779 295.709 511.677 295.045C511.59 294.481 511.336 293.863 511.236 292.703C510.953 289.419 511.615 288.528 511.736 287.903C511.864 287.248 512.058 286.72 512.197 286.178C512.404 285.378 512.539 284.676 512.639 284.031C512.744 283.353 512.78 280.723 512.68 279.136C512.637 278.442 512.06 277.492 511.378 276.789C510.793 276.186 508.981 274.969 507.947 274.2C507.379 273.778 506.884 273.558 506.362 273.297C505.966 273.099 505.719 272.755 505.579 272.515C505.287 272.015 505.517 271.232 505.717 270.59C505.943 269.866 506.359 269.386 506.66 268.824C506.934 268.31 507.481 268.1 507.983 267.7C508.555 267.244 509.126 266.858 509.748 266.296C510.25 265.844 510.852 265.493 511.274 265.012C511.414 264.851 511.612 264.653 511.774 264.471C511.936 264.289 512.055 264.13 512.419 263.726M515.261 258.238C515.607 257.833 516.769 257.25 517.527 256.699C518.361 256.092 519.215 255.45 520.315 254.665C521.708 253.672 522.236 252.543 522.819 251.583C523.502 250.457 524.155 249.693 524.883 248.849C525.583 248.037 526.249 247.309 526.774 246.406C527.209 245.659 527.704 244.982 528.025 244.283C528.666 242.888 530.96 241.667 532.493 241.143C535.258 240.198 538.107 240.094 539.502 240.065C541.942 240.014 545.555 240.034 546.515 240.151C548.414 240.382 549.453 240.558 550.788 240.559C551.969 240.561 552.939 239.574 553.93 239.338C555.399 238.989 559.425 238.698 561.637 238.293C562.575 238.121 562.482 236.782 563.294 235.07C563.71 234.191 563.993 233.122 564.43 232.245C564.956 231.189 566.027 229.458 566.436 228.581C566.908 227.57 567.716 226.548 568.412 225.327C568.929 224.42 569.111 223.697 570.039 222.883C570.903 222.123 574.604 221.949 576.873 221.747C578.022 221.644 579.167 220.721 579.927 220.108L579.985 220.062C580.627 219.544 581.495 219.276 582.774 218.376C584.4 217.231 586.15 216.021 586.789 215.149C587.41 214.301 587.95 213.118 588.419 212.008C589.165 210.24 590.396 207.996 590.744 207.095L590.85 206.82C592.048 203.723 593.486 200.005 593.769 199.068C594.155 197.795 595.047 195.846 595.629 194.216C596.19 192.645 596.213 191.076 596.502 189.044C596.812 186.872 596.619 185.198 596.706 184.273C596.858 182.663 596.679 181.475 596.62 179.371C596.566 177.441 596.677 173.755 596.764 171.771C596.851 169.786 596.966 169.613 597.141 169.467C597.956 168.914 598.767 168.218 599.67 167.693C599.875 167.576 600.047 167.461 600.225 167.342M604.064 166.819C604.179 167.166 604.873 167.862 605.631 168.387C606.537 169.014 608.073 168.507 609.35 167.954C609.733 167.788 610.219 167.865 610.571 167.98C611.834 168.393 612.319 169.722 613.075 171.204C613.55 172.136 613.949 173.036 614.037 173.939C614.116 174.747 614.472 175.653 614.56 176.903C614.649 178.161 614.936 179.432 615.084 183.609C615.176 186.232 615.114 189.377 614.91 190.368C614.649 191.634 614.127 193.274 613.315 195.418C612.2 198.365 610.698 200.832 609.683 202.253C607.901 204.747 607.263 205.721 606.712 206.65C606.066 207.74 605.868 208.627 605.287 209.905C604.302 212.077 604.646 213.746 604.558 215.632C604.527 216.308 604.412 218.556 604.384 221.695C604.366 223.657 603.715 225.027 603.396 225.987C603.065 226.987 603.017 227.703 602.872 228.546C602.63 229.955 602.668 231.245 603.421 234.817C603.817 236.699 603.945 237.763 604.092 238.666C604.23 239.51 604.353 240.439 603.631 241.862C603.115 242.879 602.322 243.984 600.031 246.423C598.88 247.648 598.308 248.466 597.874 248.728C597.348 249.044 596.738 248.759 596.275 248.47C595.477 247.973 594.936 247.191 594.5 246.813C594.176 246.531 593.426 246.549 592.584 246.664C591.581 246.801 591.561 248.231 591.271 248.96C591.127 249.322 590.632 249.513 589.938 249.775C588.64 250.264 587.491 249.748 587.143 249.459C586.733 249.117 586.56 248.644 586.386 248.325C585.778 247.206 583.479 248.06 583.159 248.349C582.474 248.971 582.374 249.86 582.198 250.588C581.971 251.524 581.038 252.013 580.165 252.652C579.095 253.437 577.608 253.642 576.821 253.528C575.954 253.402 575.28 253.063 574.524 252.946C573.09 252.725 571.617 252.191 570.744 251.756C569.718 251.243 569 250.39 568.156 249.72C567.951 249.574 567.778 249.459 567.603 249.371C567.428 249.283 567.255 249.225 566.728 248.817M567.077 254.225C567.192 254.572 567.541 255.499 567.89 256.518C568.199 257.421 567.892 258.294 567.661 258.844C566.976 260.475 565.685 261.315 564.117 262.769C562.818 263.973 561.264 265.562 560.509 266.261C559.873 266.849 559.23 267.251 558.386 267.744C557.745 268.12 556.616 268.008 555.768 267.632C555.007 267.294 555.039 266.267 554.75 265.048C554.291 263.121 555.095 262.024 555.357 261.005C555.837 259.146 556.201 258.416 556.405 257.487C556.628 256.472 556.262 255.45 555.914 254.811C555.262 253.614 553.881 252.833 553.094 252.481C552.229 252.095 551.264 251.957 550.303 251.784C549.753 251.667 549.284 251.608 548.734 251.493C548.357 251.378 547.781 251.148 546.839 250.91M410.622 94.3997C410.313 93.8815 409.48 92.8451 408.39 91.957C407.755 91.4389 406.673 91.5902 405.687 91.6932C403.923 91.8773 402.618 93.2509 400.951 94.0329C399.406 94.7578 397.623 94.6058 395.905 94.971C394.002 95.3754 392.316 95.8545 390.96 96.3742C389.501 96.9335 388.464 97.9335 387.266 98.8186C385.884 99.8384 385.03 102.092 384.142 103.448C383.364 104.637 382.427 105.944 380.869 107.453C379.045 109.221 376.708 109.378 375.351 109.748C373.826 110.164 371.507 110.214 369.785 111.201C368.293 112.056 367.13 113.436 364.432 115.361C362.928 116.433 361.099 117.388 359.691 118.123C358.214 118.895 356.21 118.749 354.178 118.336C352.154 117.924 351.003 116.152 350.012 115.059C349.517 114.513 348.403 114.379 347.156 114.482C345.571 114.613 344.242 116.14 343.455 117.547C342.468 119.314 341.944 121.24 341.737 122.75C341.558 124.044 343.087 124.987 343.814 126.237C344.542 127.488 345.166 128.733 345.637 130.189C346.408 132.571 344.448 134.764 343.51 136.175C341.769 138.793 337.892 138.416 336.59 139.141C334.819 140.126 334.146 141.844 332.585 143.508C331.621 144.536 330.918 145.696 330.088 146.424C328.545 147.775 321.809 147.469 317.655 147.728C314.27 147.94 311.57 148.406 309.848 148.665C308.347 148.891 306.675 149.236 303.611 150.741C301.904 151.579 299.713 152.564 293.217 153.554C291.902 153.754 291.484 153.713 291.221 153.867C289.689 154.765 287.432 156.934 280.783 159.53C278.245 160.521 276.706 160.062 275.456 159.646C274.112 159.198 272.442 158.814 270.672 158.086C268.594 157.233 266.517 156.216 264.583 155.536C262.45 154.785 259.749 152.882 257.976 152.363C256.14 151.825 254.854 150.803 253.344 150.229C251.925 149.689 250.59 148.824 249.233 148.459C247.102 147.885 243.104 147.469 240.912 147.21C238.217 146.892 231.597 146.845 227.175 146.534C225.786 146.437 224.573 146.015 223.168 145.598C220.119 144.693 216.25 145.078 214.117 145.023C212.562 144.984 210.943 145.39 209.328 144.663C207.966 144.049 206.779 143.311 205.426 142.426C203.564 141.209 201.89 139.983 201.052 138.682C199.948 136.967 198.762 135.407 197.517 131.978C196.83 130.088 195.953 128.745 194.707 126.977C193.685 125.525 191.695 124.375 190.232 123.487C188.583 122.485 184.733 121.459 182.689 120.728C180.854 120.073 178.477 119.998 176.862 119.687C175.518 119.429 173.901 118.855 172.179 118.439C170.849 118.117 169.424 117.813 164.856 116.517C162.3 115.793 159.547 115.215 158.025 114.02C156.558 112.867 156.513 111.263 155.995 108.718C155.686 107.201 155.264 105.75 155.523 103.515C155.951 99.8261 156.925 96.4975 156.519 91.7665C156.011 85.8391 152.042 85.6651 151.157 84.5179C150.267 83.3635 147.89 81.407 146.475 79.8353C145.571 78.8315 144.032 78.379 142.523 77.5455C141.215 76.8232 139.974 76.1937 138.466 74.8951C136.087 72.8463 134.667 72.4477 133.779 71.3035C132.9 70.172 132.482 68.2895 131.75 66.8301C130.811 65.0585 130.602 62.9888 130.292 61.2625C130.187 60.8972 130.084 60.4851 129.666 59.4362M8.4314 222.045C8.4314 221.882 8.4314 221.392 8.5942 220.612C8.67731 220.214 9.08262 219.914 9.37246 219.746C10.2895 219.215 11.3866 219.169 12.5792 218.554C14.0964 217.771 13.2021 214.897 12.8321 213.909C12.2078 212.242 11.1448 210.047 10.9401 208.772C10.5939 206.615 10.6515 205.113 10.406 203.837C10.2019 202.775 9.74864 201.823 9.21459 200.835C8.71425 199.909 7.69631 199.109 6.50364 198.203C5.62021 197.531 4.48955 197.299 3.13284 195.945C2.07168 194.885 1.85507 193.357 1.56646 191.915C1.28336 190.501 1.934 189.489 2.50875 188.379C3.30681 186.838 3.82353 185.301 4.76829 183.611C5.56957 182.178 6.29027 181.349 7.03029 180.32C8.03276 178.927 9.41316 178.468 10.8106 177.524C11.9884 176.729 14.5835 176.332 16.2781 175.959C18.2492 175.526 19.6057 176.327 23.0135 176.37C24.5088 176.389 25.9354 175.345 27.297 174.646C29.1539 173.692 30.3805 172.222 32.5968 170.661C34.0546 169.633 35.7234 168.522 37 167.779C38.0824 167.15 39.4235 166.874 40.5767 166.75C42.9192 166.496 45.8371 165.231 47.1136 164.613C49.3913 163.511 52.6601 159.893 54.5928 158C56.7084 155.928 57.1051 154.708 59.525 148.48C60.8129 145.165 61.1358 142.049 61.6698 140.688C62.0809 139.641 62.7786 138.674 63.2325 137.031C63.6247 135.612 64.012 133.341 64.139 128.49C64.1856 126.712 63.1141 125.112 62.4555 123.546C61.7677 121.91 61.1407 120.751 60.4821 119.476C59.4726 117.521 59.3301 115.739 59.3684 113.885C59.3961 112.54 61.3775 112.196 62.7762 111.538C63.6431 111.129 64.4239 110.96 66.3406 110.837C74.5208 110.311 75.6846 111.042 76.9612 111.247C78.0724 111.37 79.0591 111.698 79.6746 111.985C79.9644 112.11 80.2086 112.191 80.7069 112.522M81.6936 108.328C81.6122 107.838 81.1213 106.853 80.9129 105.825C80.669 104.621 80.4603 101.53 81.3606 98.3875C81.8179 96.7914 82.7593 95.5902 83.2131 94.4777C83.7074 93.2662 84.0765 92.2996 84.2011 91.2302C84.3648 89.8248 84.7326 88.6833 85.432 87.6929C86.0274 86.8497 88.339 87.1145 90.1151 87.6461C92.5607 88.3781 93.529 88.9201 94.7217 89.2926C95.7118 89.6018 99.9919 89.5812 102.779 89.0903C104.563 88.7762 105.453 87.6128 106.153 86.5027C107.184 84.8661 107.589 83.2565 108.127 81.98C108.578 80.9103 108.828 79.9659 109.237 77.6311C110.212 72.0711 110.143 69.5217 110.551 69.0283C112.304 66.9101 116.386 67.8739 117.458 67.5471C118.907 67.1052 119.267 64.9188 120.704 61.4332C121.026 60.6529 121.078 60.3158 121.242 60.1074C121.65 59.8175 122.716 59.7337 124.071 59.7744C124.612 59.8151 124.857 59.8965 125.602 60.227M215.632 336.478C214.173 336.478 211.227 336.283 209.317 336.135C208.568 336.077 207.892 335.501 207.255 334.719C205.143 332.123 206.616 326.485 206.175 325.308C205.696 324.03 204.169 323.445 202.797 323.001C200.742 322.335 199.464 323.439 198.286 324.124C196.117 325.386 192.112 324.521 187.469 324.566C184.85 324.592 183.779 327.356 182.993 328.533C182.026 329.984 180.35 331.667 178.684 333.628C177.334 335.217 174.769 336.96 172.706 338.823C170.534 340.784 168.099 342.059 166.577 342.651C165.957 342.893 164.864 342.947 163.543 342.85C161.747 342.718 159.965 340.506 158.539 339.177C157.174 337.904 153.896 338.242 150.557 338.926C149.871 339.066 149.379 338.93 149.081 338.734C148.556 338.391 148.294 337.754 147.61 337.46C146.075 336.799 144.768 338.336 143.395 339.414C142.138 340.4 141.139 341.959 140.062 342.896C139.475 343.141 138.787 343.241 138.005 343.144C137.611 343.047 137.222 342.853 136.528 342.653M131.823 342.947C131.044 342.947 129.283 343.141 126.205 343.485C119.421 344.244 118.008 343.047 116.05 341.825C114.156 340.644 111.645 339.036 109.823 337.951C108.271 337.026 106.346 335.989 105.117 335.256C103.984 334.58 103.205 333.349 101.932 331.827C100.971 330.678 99.9705 329.72 99.1368 328.494C98.1159 326.992 96.4476 325.509 94.0466 323.79C91.3839 321.884 88.4197 321.098 86.2495 319.72C84.5923 318.668 83.3088 317.563 82.1796 316.73C80.9513 315.823 79.586 314.235 78.4068 312.811C76.702 310.754 75.3691 309.918 74.0458 309.425C73.0694 309.062 71.4522 309.13 69.8363 309.227C68.1146 310.203 66.8383 311.285 66.3002 311.578C66.0532 311.773 65.8591 312.064 65.6591 312.364M63.0126 309.13C62.4274 308.347 60.0896 306.207 58.556 304.526C57.666 303.551 56.255 303.054 55.0772 302.125C53.5766 300.941 51.844 299.331 50.6663 298.351C49.6824 297.531 48.2211 296.103 47.136 294.725C46.2397 293.587 46.0568 291.886 45.7128 290.17C45.2583 287.903 45.3687 286.299 45.0761 284.484C44.94 283.64 44.8776 282.767 45.1702 281.983C45.7115 280.533 48.4035 281.585 49.0886 281.538C49.8111 281.488 49.9738 280.314 50.2678 279.534C51.0299 277.51 49.5856 276.2 49.1445 274.974C48.6166 273.506 47.9212 272.378 46.892 270.468C46.1714 269.13 45.9568 267.19 45.7128 264.982C45.2325 260.636 46.6391 259.439 46.6935 257.285C46.7355 255.623 44.9806 254.734 43.9999 253.556C43.0733 252.443 42.1399 250.523 40.23 247.828C38.8162 245.833 38.2171 244.147 37.6275 242.774C37.0162 241.35 34.7883 241.301 32.005 240.276C26.0736 238.092 24.2079 236.896 22.7787 235.57C21.3809 234.272 19.2206 228.403 17.143 225.326C15.8682 224.342 13.9157 223.757 12.1939 223.264C11.8484 223.166 11.5573 223.069 11.2573 222.969M323.553 426.755C322.968 427.046 322.183 428.414 321.156 429.497C320.653 430.029 319.636 429.208 318.854 428.719C317.201 427.688 317.378 426.073 317.135 425.436C316.848 424.683 315.519 424.991 314.737 425.136C312.838 425.49 311.214 427.437 308.175 427.54C306.028 427.613 304.739 426.367 303.268 425.826C302.468 425.531 301.795 425.091 301.257 424.651C300.065 423.677 299.734 419.339 299.49 416.664C299.338 414.996 298.952 413.822 298.462 412.596C297.771 410.865 296.211 409.899 293.716 407.601C291.741 405.782 288.965 404.706 287.388 404.114C285.985 403.587 284.154 404.012 282.88 404.746C281.203 405.711 280.526 407.047 279.985 408.273C279.283 409.863 276.903 410.382 274.405 411.167C272.893 411.642 271.416 412.246 269.453 412.639C266.372 413.255 262.2 412.74 259.457 412.689C257.823 412.658 256.512 413.716 255.335 414.402C254.063 415.141 253.372 416.457 253.028 417.926C252.401 420.602 253.854 422.626 253.96 427.861C254.008 430.238 252.687 431.36 252.051 431.703C251.372 432.069 250.531 432.048 249.749 431.854C248.47 430.581 248.079 429.699 247.785 428.384C247.685 427.361 247.685 425.614 247.685 423.814M218.572 338.242C219.06 338.827 220.813 340.777 222.05 342.354C222.875 343.408 223.471 344.705 223.864 345.932C224.351 347.453 224.942 349.016 225.286 350.878C225.84 353.874 225.824 355.486 225.875 361.401C225.895 363.639 225.436 364.996 225.043 366.271C224.511 367.999 224.065 369.989 223.524 371.711C222.979 373.445 221.131 376.453 220.046 378.474C219.356 379.758 218.478 380.875 217.937 382.297L217.927 382.323C217.408 383.688 216.906 385.007 216.564 387.384C216.059 390.896 216.805 393.426 217.44 393.866C219.45 395.257 222.877 394.314 224.399 394.066C225.044 393.96 225.724 393.82 226.409 393.966C227.736 394.247 227.688 396.749 227.981 398.227C228.253 399.603 228.665 401.36 229.254 402.686C229.956 404.265 231.405 405.283 232.878 405.972C233.505 406.265 233.764 407.05 234.058 407.734C234.755 409.356 233.475 411.064 232.934 412.39C232.345 413.834 231.711 415.181 231.267 416.604C231.135 417.028 231.217 417.627 231.411 418.121C232.124 419.936 233.858 420.186 235.035 420.627C236.336 421.114 237.581 422.532 238.225 423.859C238.85 425.146 239.151 426.455 239.84 427.536C240.918 428.028 241.897 428.225 242.631 428.128C242.977 428.031 243.268 427.837 243.862 427.343M458.045 420.035C457.654 420.035 456.868 418.668 455.98 415.816C454.064 409.658 458.637 404.663 457.853 402.293C456.884 399.365 454.305 397.172 453.412 394.113C451.933 389.05 456.069 385.728 457.252 382.868C458.196 380.585 456.666 378.622 456.566 377.442C458.039 374.877 459.424 372.315 459.817 370.542C460.015 369.747 460.211 369.161 461.004 367.966M465.145 362.049C467.5 359.694 471.051 356.534 474.5 354.365C476.235 353.275 477.565 352.191 478.941 351.599C482.21 350.193 485.251 353.362 487.819 354.549C489.797 355.462 487.63 361.031 486.941 364.8C486.725 365.979 488.417 366.776 488.713 368.054C488.871 368.736 488.813 369.528 488.521 370.223C488.228 370.918 487.642 371.504 487.047 372.001C486.453 372.498 485.867 372.889 484.672 373.883M461.595 421.81C463.95 422.402 467.5 422.012 470.361 421.026C473.338 420.001 473.228 415.515 474.607 412.944C475.953 410.434 477.76 408.213 479.145 403.299C482.149 392.637 480.92 388.687 482.201 386.317C482.695 385.137 483.092 383.752 483.388 382.178C483.488 381.385 483.488 380.604 483.488 379.8" stroke="currentColor" stroke-width="3" stroke-linecap="round"/>
</svg>
