<svg width="416" height="271" viewBox="0 0 416 271" fill="none" xmlns="http://www.w3.org/2000/svg">
<path d="M83 208C78.0294 208 74 203.971 74 199C74 203.971 69.9706 208 65 208H83ZM31.126 228.293C30.926 228.607 30.7328 228.926 30.5459 229.249C30.7328 228.926 30.926 228.607 31.126 228.293ZM75.873 228.293C76.073 228.607 76.2662 228.926 76.4531 229.249C76.2662 228.926 76.073 228.607 75.873 228.293ZM286.126 228.293C285.926 228.607 285.733 228.926 285.546 229.249C285.733 228.926 285.926 228.607 286.126 228.293ZM330.873 228.293C331.073 228.607 331.266 228.926 331.453 229.249C331.266 228.926 331.073 228.607 330.873 228.293ZM341.126 228.293C340.926 228.607 340.733 228.926 340.546 229.249C340.733 228.926 340.926 228.607 341.126 228.293ZM385.873 228.293C386.073 228.607 386.266 228.926 386.453 229.249C386.266 228.926 386.073 228.607 385.873 228.293ZM37.8135 221.14C37.0897 221.672 36.3936 222.24 35.7285 222.842C36.3936 222.24 37.0897 221.672 37.8135 221.14ZM69.2988 221.224C69.982 221.732 70.6402 222.272 71.2705 222.842C70.6402 222.272 69.982 221.732 69.2988 221.224ZM292.813 221.14C292.09 221.672 291.394 222.24 290.729 222.842C291.394 222.24 292.09 221.672 292.813 221.14ZM324.299 221.224C324.982 221.732 325.64 222.272 326.271 222.842C325.64 222.272 324.982 221.732 324.299 221.224ZM347.813 221.14C347.09 221.672 346.394 222.24 345.729 222.842C346.394 222.24 347.09 221.672 347.813 221.14ZM379.299 221.224C379.982 221.732 380.64 222.272 381.271 222.842C380.64 222.272 379.982 221.732 379.299 221.224ZM45.5566 217.211C45.1805 217.329 44.8082 217.456 44.4395 217.59C44.8082 217.456 45.1805 217.329 45.5566 217.211ZM61.4424 217.211C61.8185 217.329 62.1909 217.456 62.5596 217.59C62.1908 217.456 61.8185 217.329 61.4424 217.211ZM300.557 217.211C300.181 217.329 299.808 217.456 299.439 217.59C299.808 217.456 300.18 217.329 300.557 217.211ZM316.442 217.211C316.819 217.329 317.191 217.456 317.56 217.59C317.191 217.456 316.819 217.329 316.442 217.211ZM355.557 217.211C355.181 217.329 354.808 217.456 354.439 217.59C354.808 217.456 355.18 217.329 355.557 217.211ZM371.442 217.211C371.819 217.329 372.191 217.456 372.56 217.59C372.191 217.456 371.819 217.329 371.442 217.211ZM405 208C409.971 208 414 212.029 414 217V225C414 229.971 409.971 234 405 234H388.645L388.144 232.737C388.08 232.576 388.014 232.416 387.947 232.257C389.269 235.408 390 238.869 390 242.5C390 257.136 378.136 269 363.5 269C348.864 269 337 257.136 337 242.5C337 238.869 337.731 235.408 339.053 232.257C338.986 232.416 338.92 232.576 338.856 232.737L338.355 234H333.645L333.144 232.737C333.08 232.576 333.014 232.416 332.947 232.257C334.269 235.408 335 238.869 335 242.5C335 257.136 323.136 269 308.5 269C293.864 269 282 257.136 282 242.5C282 238.869 282.731 235.408 284.053 232.257C283.986 232.416 283.92 232.576 283.856 232.737L283.355 234H78.6445L78.1436 232.737C78.0797 232.576 78.0141 232.416 77.9473 232.257C79.2692 235.408 80 238.869 80 242.5C80 257.136 68.1355 269 53.5 269C38.8645 269 27 257.136 27 242.5C27 238.869 27.7308 235.408 29.0527 232.257C28.9859 232.416 28.9203 232.576 28.8564 232.737L28.3555 234H11C6.02944 234 2 229.971 2 225V217C2 212.029 6.02944 208 11 208L10.5371 207.988C5.78166 207.747 2 203.815 2 199V155C2 150.029 6.02944 146 11 146H65C69.9706 146 74 150.029 74 155V97C74 92.0294 78.0294 88 83 88H137C141.971 88 146 92.0294 146 97V199C146 203.971 141.971 208 137 208H405Z" fill="#FCF9E9" stroke="#FCF9E9" stroke-width="4"/>
<path d="M53.5 220C65.9264 220 76 230.074 76 242.5C76 254.926 65.9264 265 53.5 265C41.0736 265 31 254.926 31 242.5C31 230.074 41.0736 220 53.5 220ZM308.5 220C320.926 220 331 230.074 331 242.5C331 254.926 320.926 265 308.5 265C296.074 265 286 254.926 286 242.5C286 230.074 296.074 220 308.5 220ZM363.5 220C375.926 220 386 230.074 386 242.5C386 254.926 375.926 265 363.5 265C351.074 265 341 254.926 341 242.5C341 230.074 351.074 220 363.5 220ZM11 212H405C407.761 212 410 214.239 410 217V225C410 227.761 407.761 230 405 230H391.326C386.554 219.392 375.893 212 363.5 212C351.383 212 340.921 219.066 336 229.296C331.079 219.066 320.617 212 308.5 212C296.107 212 285.446 219.392 280.674 230H81.3262C76.5537 219.392 65.8933 212 53.5 212C41.1067 212 30.4463 219.392 25.6738 230H11C8.23858 230 6 227.761 6 225V217C6 214.239 8.23858 212 11 212ZM11 150H65C67.7614 150 70 152.239 70 155V199C70 201.761 67.7614 204 65 204H11C8.23858 204 6 201.761 6 199V155C6 152.239 8.23858 150 11 150ZM83 92H137C139.761 92 142 94.2386 142 97V199C142 201.761 139.761 204 137 204H83C80.2386 204 78 201.761 78 199V97C78 94.2386 80.2386 92 83 92Z" fill="#FCF9E9" stroke="#2F3032" stroke-width="4"/>
<path d="M405 2C409.971 2 414 6.02944 414 11V199C414 203.971 409.971 208 405 208H11C6.02943 208 2 203.971 2 199V11C2 6.02944 6.02944 2 11 2H405Z" fill="#FCF9E9" stroke="#FCF9E9" stroke-width="4"/>
<path d="M11 6H405C407.761 6 410 8.23858 410 11V199C410 201.761 407.761 204 405 204H11C8.23858 204 6 201.761 6 199V11C6 8.23858 8.23858 6 11 6Z" fill="#FCF9E9" stroke="#2F3032" stroke-width="4"/>
<path d="M24.488 21.316C26.468 21.316 27.884 22.744 27.884 24.76C27.884 26.788 26.468 28.228 24.488 28.228C23.9 28.228 23.36 28.072 22.904 27.796V30.34H20.696V21.52H22.22L22.496 22.036C23.024 21.58 23.708 21.316 24.488 21.316ZM24.188 26.248C25.016 26.248 25.64 25.612 25.64 24.76C25.64 23.92 25.016 23.284 24.188 23.284C23.348 23.284 22.736 23.92 22.736 24.76C22.736 25.612 23.348 26.248 24.188 26.248ZM34.1311 21.52H35.7991V28H34.0711L33.8791 27.544C33.3511 27.976 32.6791 28.216 31.9231 28.216C29.9431 28.216 28.5271 26.776 28.5271 24.76C28.5271 22.756 29.9431 21.328 31.9231 21.328C32.6911 21.328 33.3751 21.58 33.9031 22.024L34.1311 21.52ZM32.2231 26.248C33.0631 26.248 33.6751 25.612 33.6751 24.76C33.6751 23.92 33.0631 23.296 32.2231 23.296C31.3831 23.296 30.7711 23.92 30.7711 24.76C30.7711 25.612 31.3831 26.248 32.2231 26.248ZM40.4117 28.216C38.3357 28.216 36.8357 26.764 36.8357 24.76C36.8357 22.756 38.3237 21.328 40.4237 21.328C42.2477 21.328 43.6037 22.468 43.8557 24.196H41.6717C41.4917 23.668 40.9997 23.32 40.4117 23.32C39.6317 23.32 39.0677 23.92 39.0677 24.76C39.0677 25.612 39.6317 26.224 40.4117 26.224C41.0117 26.224 41.5037 25.852 41.6837 25.276H43.8797C43.6277 27.028 42.2357 28.216 40.4117 28.216ZM51.5806 21.52H53.7406V28H44.8366V21.52H46.9966V26.08H48.2686V21.52H50.3086V26.08H51.5806V21.52ZM59.9251 21.52H61.2211V28H59.0611V25.096L56.4571 28H55.1491V21.52H57.2971V24.4L59.9251 21.52ZM66.4177 21.316C68.3977 21.316 69.8137 22.744 69.8137 24.76C69.8137 26.788 68.3977 28.228 66.4177 28.228C65.8297 28.228 65.2897 28.072 64.8337 27.796V30.34H62.6257V21.52H64.1497L64.4257 22.036C64.9537 21.58 65.6377 21.316 66.4177 21.316ZM66.1177 26.248C66.9457 26.248 67.5697 25.612 67.5697 24.76C67.5697 23.92 66.9457 23.284 66.1177 23.284C65.2777 23.284 64.6657 23.92 64.6657 24.76C64.6657 25.612 65.2777 26.248 66.1177 26.248ZM77.5008 24.7C77.5008 24.904 77.4888 25.096 77.4648 25.3H72.6528C72.7968 26.044 73.2648 26.428 73.9728 26.428C74.4888 26.428 74.9328 26.2 75.1368 25.816H77.3688C76.9128 27.292 75.5928 28.216 73.9728 28.216C71.9448 28.216 70.4568 26.74 70.4568 24.76C70.4568 22.78 71.9328 21.316 73.9728 21.316C76.0608 21.316 77.5008 22.804 77.5008 24.7ZM73.9728 23.068C73.3248 23.068 72.8688 23.416 72.6888 24.064H75.3048C75.1128 23.416 74.6448 23.068 73.9728 23.068ZM82.5123 21.52H84.7443V28H82.5123V25.72H80.7363V28H78.5163V21.52H80.7363V23.752H82.5123V21.52ZM90.1412 21.52H92.3732V28H90.1412V25.72H88.3652V28H86.1452V21.52H88.3652V23.752H90.1412V21.52ZM96.8461 23.188C98.4301 23.188 99.4261 24.16 99.4261 25.6C99.4261 27.028 98.4301 28 96.8461 28H93.7741V21.52H95.8381V23.188H96.8461ZM100.302 21.52H102.522V28H100.302V21.52ZM96.6061 26.308C97.0621 26.308 97.3501 26.044 97.3501 25.6C97.3501 25.144 97.0621 24.88 96.6061 24.88H95.8381V26.308H96.6061ZM108.795 19.18V20.632H105.363V19.18H108.795ZM108.699 21.52H109.995V28H107.835V25.096L105.231 28H103.923V21.52H106.071V24.4L108.699 21.52ZM117.253 28.216C115.141 28.216 113.629 26.764 113.629 24.76C113.629 22.756 115.141 21.316 117.253 21.316C119.365 21.316 120.889 22.756 120.889 24.76C120.889 26.764 119.365 28.216 117.253 28.216ZM117.253 26.212C118.069 26.212 118.657 25.624 118.657 24.772C118.657 23.92 118.069 23.32 117.253 23.32C116.449 23.32 115.861 23.908 115.861 24.772C115.861 25.624 116.449 26.212 117.253 26.212ZM127.553 21.52V23.452H125.525V28H123.329V23.452H121.289V21.52H127.553ZM132.722 24.556C133.37 24.892 133.67 25.444 133.67 26.128C133.67 27.424 132.386 28.216 130.826 28.216C129.158 28.216 127.97 27.352 127.934 25.84H129.998C130.01 26.26 130.322 26.512 130.79 26.512C131.234 26.512 131.498 26.272 131.498 25.948C131.498 25.612 131.234 25.36 130.754 25.36H130.046V23.956H130.754C131.198 23.956 131.402 23.728 131.402 23.428C131.402 23.116 131.186 22.912 130.766 22.912C130.382 22.912 130.13 23.116 130.082 23.476H128.066C128.126 22.12 129.314 21.316 130.814 21.316C132.266 21.316 133.478 22.084 133.478 23.272C133.478 23.788 133.226 24.22 132.722 24.556ZM137.78 23.188C139.364 23.188 140.36 24.16 140.36 25.6C140.36 27.028 139.364 28 137.78 28H134.708V21.52H136.772V23.188H137.78ZM141.236 21.52H143.456V28H141.236V21.52ZM137.54 26.308C137.996 26.308 138.284 26.044 138.284 25.6C138.284 25.144 137.996 24.88 137.54 24.88H136.772V26.308H137.54ZM149.68 24.568C150.352 24.832 150.76 25.384 150.76 26.128C150.76 27.22 149.896 28 148.648 28H144.856V21.52H148.588C149.752 21.52 150.556 22.192 150.556 23.164C150.556 23.788 150.22 24.292 149.68 24.568ZM148.516 23.476C148.516 23.164 148.288 22.936 147.928 22.936H146.932V24.028H147.928C148.288 24.028 148.516 23.8 148.516 23.476ZM148 26.512C148.384 26.512 148.612 26.284 148.612 25.936C148.612 25.576 148.384 25.36 148 25.36H146.932V26.512H148Z" fill="black"/>
</svg>
